<?xml version="1.0" encoding="UTF-8"?><svg width="56" height="56" viewBox="0 0 56 56" fill="none" xmlns="http://www.w3.org/2000/svg">
<rect width="56" height="56" rx="28" fill="#D9E8E5"/>
<g clip-path="url(#clip0_403_3142)">
<path d="M28 23V19H18V37H38V23H28ZM22 35H20V33H22V35ZM22 31H20V29H22V31ZM22 27H20V25H22V27ZM22 23H20V21H22V23ZM26 35H24V33H26V35ZM26 31H24V29H26V31ZM26 27H24V25H26V27ZM26 23H24V21H26V23ZM36 35H28V33H30V31H28V29H30V27H28V25H36V35ZM34 27H32V29H34V27ZM34 31H32V33H34V31Z" fill="#353B46"/>
</g>
<defs>
<clipPath id="clip0_403_3142">
<rect width="24" height="24" fill="white" transform="translate(16 16)"/>
</clipPath>
</defs>
</svg>
