<svg xmlns="http://www.w3.org/2000/svg" xmlns:xlink="http://www.w3.org/1999/xlink" width="500" zoomAndPan="magnify" viewBox="0 0 375 374.999991" height="500" preserveAspectRatio="xMidYMid meet" version="1.0"><defs><clipPath id="ad2b3dea36"><path d="M 88.109375 86.238281 L 289.109375 86.238281 L 289.109375 287.238281 L 88.109375 287.238281 Z M 88.109375 86.238281 " clip-rule="nonzero"/></clipPath></defs><rect x="-37.5" width="450" fill="#ffffff" y="-37.499999" height="449.999989" fill-opacity="1"/><rect x="-37.5" width="450" fill="#ffffff" y="-37.499999" height="449.999989" fill-opacity="1"/><g clip-path="url(#ad2b3dea36)"><path fill="#1b9644" d="M 187.441406 287.210938 L 187.164062 287.210938 C 187.164062 287.210938 186.421875 287.195312 186.421875 287.195312 L 186.242188 287.195312 C 159.523438 286.566406 135.3125 275.398438 117.617188 257.707031 C 99.410156 239.503906 88.109375 214.375 88.109375 186.730469 L 88.109375 86.238281 L 98.992188 86.238281 C 132.664062 86.238281 163.273438 99.355469 185.316406 121.398438 C 200.566406 136.648438 211.699219 156.144531 216.890625 178.492188 L 216.941406 178.722656 L 216.992188 178.957031 L 217.199219 179.878906 L 217.253906 180.113281 L 217.304688 180.34375 C 217.386719 180.730469 217.46875 181.121094 217.546875 181.503906 L 217.597656 181.738281 L 217.644531 181.96875 L 217.828125 182.90625 L 217.875 183.136719 L 217.921875 183.371094 L 218.136719 184.542969 L 218.214844 185.019531 L 218.378906 185.957031 C 218.378906 185.957031 218.417969 186.195312 218.417969 186.195312 L 218.652344 187.625 L 218.683594 187.863281 L 218.71875 188.101562 L 218.828125 188.8125 L 218.859375 189.050781 L 218.964844 189.765625 L 219.03125 190.246094 L 219.066406 190.484375 L 219.121094 190.960938 L 219.148438 191.203125 L 219.242188 191.929688 L 219.269531 192.171875 L 219.296875 192.417969 L 219.324219 192.660156 L 219.324219 192.683594 C 219.875 197.480469 220.152344 202.394531 220.152344 207.394531 L 220.152344 219.292969 C 220.152344 220.742188 219.871094 222.117188 219.355469 223.382812 C 219.222656 223.699219 219.085938 224.003906 218.929688 224.304688 C 218.929688 224.304688 218.839844 224.480469 218.839844 224.480469 L 218.839844 224.492188 C 218.839844 224.492188 218.730469 224.667969 218.730469 224.667969 L 218.640625 224.820312 L 218.621094 224.855469 C 218.453125 225.136719 218.273438 225.417969 218.078125 225.683594 L 218.0625 225.707031 L 217.949219 225.851562 C 217.671875 226.226562 217.367188 226.578125 217.042969 226.90625 L 216.777344 227.171875 L 216.746094 227.199219 L 216.601562 227.335938 L 216.589844 227.347656 L 216.453125 227.472656 L 216.429688 227.488281 L 216.328125 227.574219 L 216.292969 227.601562 L 216.1875 227.695312 L 216.136719 227.734375 L 215.984375 227.859375 C 215.984375 227.859375 215.824219 227.984375 215.824219 227.984375 L 215.777344 228.015625 L 215.660156 228.101562 L 215.625 228.125 C 215.53125 228.199219 215.429688 228.265625 215.324219 228.332031 L 215.15625 228.445312 L 215.128906 228.464844 L 214.984375 228.554688 L 214.976562 228.554688 C 214.976562 228.554688 214.84375 228.640625 214.84375 228.640625 L 214.808594 228.664062 L 214.675781 228.742188 L 214.460938 228.859375 L 214.449219 228.859375 C 214.449219 228.859375 214.277344 228.957031 214.277344 228.957031 L 214.261719 228.96875 L 214.128906 229.035156 L 214.0625 229.070312 L 213.933594 229.132812 L 213.914062 229.144531 L 213.738281 229.222656 L 213.726562 229.222656 C 213.726562 229.222656 213.542969 229.308594 213.542969 229.308594 L 213.359375 229.386719 L 213.347656 229.386719 C 213.347656 229.386719 213.195312 229.449219 213.195312 229.449219 L 213.160156 229.460938 L 213.003906 229.523438 L 212.96875 229.535156 L 212.777344 229.601562 L 212.75 229.613281 L 212.578125 229.671875 L 212.542969 229.683594 L 212.429688 229.714844 L 212.238281 229.773438 C 212.238281 229.773438 211.984375 229.839844 211.984375 229.839844 L 211.976562 229.839844 C 211.976562 229.839844 211.78125 229.890625 211.78125 229.890625 L 211.710938 229.910156 L 211.675781 229.910156 C 211.675781 229.910156 211.480469 229.960938 211.480469 229.960938 L 211.449219 229.960938 C 211.449219 229.960938 211.378906 229.980469 211.378906 229.980469 L 211.183594 230.015625 L 211.167969 230.015625 C 211.167969 230.015625 210.957031 230.050781 210.957031 230.050781 L 210.78125 230.078125 L 210.726562 230.078125 C 210.726562 230.078125 210.5625 230.105469 210.5625 230.105469 L 210.539062 230.105469 C 210.539062 230.105469 210.367188 230.128906 210.367188 230.128906 L 210.328125 230.128906 C 210.328125 230.128906 210.121094 230.152344 210.121094 230.152344 L 210.097656 230.152344 C 210.097656 230.152344 209.90625 230.167969 209.90625 230.167969 L 209.820312 230.167969 C 209.820312 230.167969 209.761719 230.175781 209.761719 230.175781 L 209.597656 230.175781 C 209.597656 230.175781 209.542969 230.179688 209.542969 230.179688 L 209.480469 230.179688 C 209.480469 230.179688 209.265625 230.179688 209.265625 230.179688 C 203.253906 230.179688 198.382812 225.308594 198.382812 219.296875 L 198.382812 207.402344 C 198.382812 178.960938 187.5 154.363281 169.917969 136.777344 C 154.265625 121.125 133.265625 110.972656 109.863281 108.554688 L 109.863281 186.730469 C 109.863281 208.371094 118.722656 228.042969 132.992188 242.320312 C 147.039062 256.363281 166.316406 265.167969 187.542969 265.445312 L 187.601562 265.445312 C 187.601562 265.445312 187.617188 265.445312 187.617188 265.445312 L 187.695312 265.445312 C 187.695312 265.445312 187.714844 265.445312 187.714844 265.445312 L 188.472656 265.445312 C 188.472656 265.445312 188.488281 265.445312 188.488281 265.445312 L 188.585938 265.445312 C 210.226562 265.445312 229.902344 256.585938 244.179688 242.316406 C 258.449219 228.039062 267.308594 208.363281 267.308594 186.722656 L 267.308594 108.59375 C 255.140625 109.925781 243.644531 113.457031 233.238281 118.773438 C 224.496094 123.246094 216.5 128.96875 209.472656 135.703125 C 205.53125 129.550781 201.082031 123.785156 196.199219 118.445312 C 204.320312 110.953125 213.460938 104.550781 223.382812 99.472656 C 239.929688 91.023438 258.574219 86.238281 278.203125 86.238281 L 289.085938 86.238281 L 289.085938 186.730469 C 289.085938 214.375 277.785156 239.5 259.578125 257.707031 C 241.367188 275.914062 216.242188 287.21875 188.597656 287.21875 L 187.589844 287.21875 C 187.589844 287.21875 187.570312 287.21875 187.570312 287.21875 L 187.515625 287.21875 C 187.515625 287.21875 187.5 287.21875 187.5 287.21875 L 187.464844 287.21875 C 187.464844 287.21875 187.449219 287.21875 187.449219 287.21875 Z M 187.441406 287.210938 " fill-opacity="1" fill-rule="evenodd"/></g></svg>