<svg width="16" height="16" viewBox="0 0 16 16" fill="none" xmlns="http://www.w3.org/2000/svg">
<mask id="path-1-outside-1" maskUnits="userSpaceOnUse" x="1" y="1" width="14" height="14" fill="black">
<rect fill="white" x="1" y="1" width="14" height="14"/>
<path fill-rule="evenodd" clip-rule="evenodd" d="M7 8L2.00011 12.9999L3.0001 13.9999L8 9L12.9999 13.9999L13.9999 12.9999L8.99999 8L14 2.99999L13 2L8 7.00001L2.99999 2.00001L2 3L7 8Z"/>
</mask>
<path fill-rule="evenodd" clip-rule="evenodd" d="M7 8L2.00011 12.9999L3.0001 13.9999L8 9L12.9999 13.9999L13.9999 12.9999L8.99999 8L14 2.99999L13 2L8 7.00001L2.99999 2.00001L2 3L7 8Z" fill="#222222"/>
<path d="M2.00011 12.9999L1.85869 12.8585L1.71726 12.9999L1.85869 13.1413L2.00011 12.9999ZM7 8L7.14143 8.14143L7.28285 8L7.14143 7.85858L7 8ZM3.0001 13.9999L2.85868 14.1413L3.0001 14.2827L3.14152 14.1413L3.0001 13.9999ZM8 9L8.14142 8.85857L8 8.71715L7.85857 8.85857L8 9ZM12.9999 13.9999L12.8585 14.1413L12.9999 14.2827L13.1413 14.1413L12.9999 13.9999ZM13.9999 12.9999L14.1413 13.1413L14.2827 12.9999L14.1413 12.8585L13.9999 12.9999ZM8.99999 8L8.85857 7.85858L8.71714 8L8.85857 8.14143L8.99999 8ZM14 2.99999L14.1414 3.14141L14.2828 2.99999L14.1414 2.85857L14 2.99999ZM13 2L13.1414 1.85858L13 1.71716L12.8586 1.85858L13 2ZM8 7.00001L7.85857 7.14143L8 7.28286L8.14142 7.14143L8 7.00001ZM2.99999 2.00001L3.14141 1.85859L2.99999 1.71717L2.85857 1.85859L2.99999 2.00001ZM2 3L1.85858 2.85858L1.71716 3L1.85858 3.14142L2 3ZM2.14153 13.1413L7.14143 8.14143L6.85858 7.85858L1.85869 12.8585L2.14153 13.1413ZM3.14152 13.8585L2.14153 12.8585L1.85869 13.1413L2.85868 14.1413L3.14152 13.8585ZM7.85857 8.85857L2.85868 13.8585L3.14152 14.1413L8.14142 9.14142L7.85857 8.85857ZM13.1413 13.8585L8.14142 8.85857L7.85857 9.14142L12.8585 14.1413L13.1413 13.8585ZM13.8585 12.8585L12.8585 13.8585L13.1413 14.1413L14.1413 13.1413L13.8585 12.8585ZM8.85857 8.14143L13.8585 13.1413L14.1413 12.8585L9.14141 7.85858L8.85857 8.14143ZM13.8586 2.85857L8.85857 7.85858L9.14141 8.14143L14.1414 3.14141L13.8586 2.85857ZM12.8586 2.14142L13.8586 3.14141L14.1414 2.85857L13.1414 1.85858L12.8586 2.14142ZM8.14142 7.14143L13.1414 2.14142L12.8586 1.85858L7.85857 6.85859L8.14142 7.14143ZM2.85857 2.14143L7.85857 7.14143L8.14142 6.85859L3.14141 1.85859L2.85857 2.14143ZM2.14142 3.14142L3.14141 2.14143L2.85857 1.85859L1.85858 2.85858L2.14142 3.14142ZM7.14143 7.85858L2.14142 2.85858L1.85858 3.14142L6.85858 8.14143L7.14143 7.85858Z" fill="#222222" mask="url(#path-1-outside-1)"/>
</svg>