<svg width="38" height="42" viewBox="0 0 38 42" fill="none" xmlns="http://www.w3.org/2000/svg">
<path fill-rule="evenodd" clip-rule="evenodd" d="M25.1572 36.1049C23.7593 37.7469 21.75 38.8188 19.4949 39.0637C16.6037 39.3778 13.8127 38.2606 12.0236 36.0755C14.6222 35.6748 16.9456 34.2705 18.5534 32.1419C20.1588 34.2602 22.5594 35.67 25.1572 36.1049ZM26.2633 34.4383C23.5748 34.2514 21.0375 32.7963 19.5824 30.4887L19.5784 30.4911C20.8975 27.8719 21.0693 24.9179 20.0944 22.2684C22.4441 22.6986 24.5282 24.1267 25.8426 26.2688C27.398 28.8054 27.5546 31.8588 26.2633 34.4383ZM26.4167 7.98657C27.6039 10.3887 27.627 13.2895 26.4008 15.6956C23.3713 15.8244 20.6351 17.1921 18.7951 19.4416C17.9873 17.1969 18.1725 14.681 19.3605 12.4705C20.7719 9.84485 23.3371 8.17025 26.2227 7.99293C26.2879 7.98816 26.3515 7.98895 26.4167 7.98657ZM12.2741 6.33741C13.6982 4.67553 15.7489 3.60445 18.0397 3.38976C20.8482 3.12577 23.5383 4.20877 25.3011 6.2897C22.67 6.66819 20.3179 8.07403 18.6926 10.2122C17.1158 8.16866 14.7931 6.79303 12.2741 6.33741ZM11.1664 7.99611C13.7753 8.21955 16.2252 9.63493 17.6636 11.8582C16.3214 14.5069 16.1528 17.4967 17.1524 20.1668C14.8265 19.6929 12.7806 18.2393 11.5059 16.09C10.0039 13.5574 9.88063 10.5406 11.1664 7.99611ZM3.37783 21.2045C3.36511 21.1854 3.35477 21.1655 3.34205 21.1464C4.86398 18.8929 7.42598 17.4219 10.1764 17.3384C11.766 19.8122 14.2325 21.4637 17.0188 21.9646C15.4682 23.7887 13.1853 24.8821 10.6678 24.9457C7.68838 25.0228 4.96258 23.6233 3.37783 21.2045ZM20.2622 20.4785C21.8032 18.6544 24.0766 17.5555 26.5877 17.48C29.5664 17.3861 32.2993 18.7745 33.896 21.1846C33.8992 21.1902 33.9024 21.1957 33.9055 21.2005C32.4122 23.4365 29.8955 24.9131 27.1777 25.0371C25.5556 22.5721 23.062 20.9453 20.2622 20.4785ZM10.9533 34.3914C9.80112 31.9924 9.79635 29.1091 11.0368 26.7197C13.9884 26.5575 16.6522 25.2184 18.4644 23.0294C19.2452 25.2805 19.0329 27.79 17.8243 29.9862C16.393 32.5864 13.8262 34.2307 10.9533 34.3914ZM2.77351 13.0438C3.95432 10.3736 6.33105 8.51375 9.1308 8.06767C9.1467 8.06529 9.16181 8.0637 9.17771 8.06131C8.22988 10.4834 8.26805 13.1686 9.27234 15.6105C6.61174 15.9207 4.16027 17.2923 2.46499 19.3366C1.77797 17.3265 1.86942 15.0873 2.77351 13.0438ZM34.8112 19.4146C33.197 17.4259 30.8951 16.1441 28.3307 15.7879C29.3326 13.3587 29.3501 10.6026 28.438 8.15673C30.4689 8.58134 32.3136 9.755 33.6113 11.5123C35.3265 13.8357 35.771 16.7826 34.8112 19.4146ZM34.5401 29.3437C33.3799 32.0027 31.0342 33.8658 28.2583 34.3397C29.1966 31.8962 29.1346 29.1958 28.0985 26.7531C30.7249 26.4088 33.1342 25.03 34.7985 22.9991C35.5141 25.018 35.4418 27.2779 34.5401 29.3437ZM2.42682 22.9371C4.06882 24.999 6.44396 26.3205 9.09104 26.6553C8.08437 29.0757 8.05972 31.8198 8.95586 34.2594C6.83041 33.861 4.89738 32.6428 3.56469 30.7996C1.88452 28.4738 1.46548 25.546 2.42682 22.9371ZM0 11.7477V30.472C0 31.3237 0.45483 32.1117 1.19274 32.5371L16.6959 41.4882C17.2836 41.8269 17.9419 41.9971 18.6003 41.9971C19.2595 41.9971 19.9179 41.8269 20.5055 41.4882L36.0087 32.5371C36.7466 32.1117 37.2015 31.3237 37.2015 30.472V11.7477C37.2015 10.8953 36.7466 10.108 36.0087 9.68184L19.7939 0.319653C19.056 -0.106551 18.1463 -0.106551 17.4076 0.319653L1.19274 9.68184C0.45483 10.108 0 10.8953 0 11.7477Z" fill="#222222"/>
</svg>
