<?xml version="1.0" encoding="UTF-8"?>
<svg width="138" height="41" viewBox="0 0 138 41" fill="none" xmlns="http://www.w3.org/2000/svg">
<g clip-path="url(#clip0)">
<path fill-rule="evenodd" clip-rule="evenodd" d="M85.6125 32.063C77.5931 37.8906 65.9695 40.9998 55.9617 40.9998C41.9293 40.9998 29.2964 35.8829 19.7392 27.3726C18.9883 26.7033 19.6611 25.7913 20.5622 26.3125C30.8763 32.2288 43.6293 35.7881 56.8027 35.7881C65.6872 35.7881 75.4606 33.9759 84.4472 30.2153C85.8048 29.6467 86.9401 31.0918 85.6125 32.063" fill="#222222"/>
<path fill-rule="evenodd" clip-rule="evenodd" d="M88.9465 28.3025C87.9253 27.0115 82.1705 27.6925 79.5875 27.9946C78.8006 28.0893 78.6804 27.4142 79.3893 26.9286C83.9726 23.7483 91.4935 24.6663 92.3705 25.7323C93.2475 26.8042 92.1422 34.2367 87.8352 37.7841C87.1744 38.329 86.5437 38.0388 86.838 37.3162C87.8051 34.9355 89.9737 29.5995 88.9465 28.3025" fill="#222222"/>
<path fill-rule="evenodd" clip-rule="evenodd" d="M79.7677 4.47718V1.38574C79.7677 0.917885 80.1281 0.604004 80.5606 0.604004H94.5991C95.0496 0.604004 95.41 0.923808 95.41 1.38574V4.03301C95.404 4.47718 95.0256 5.05756 94.3528 5.97551L87.0783 16.2151C89.7814 16.15 92.6348 16.5468 95.0857 17.9089C95.6383 18.2169 95.7885 18.667 95.8305 19.1111V22.4099C95.8305 22.8599 95.3259 23.387 94.7973 23.1146C90.4782 20.8819 84.7415 20.6391 79.9659 23.1383C79.4793 23.3989 78.9688 22.8777 78.9688 22.4276V19.2947C78.9688 18.7913 78.9748 17.9326 79.4853 17.1686L87.9132 5.253H80.5786C80.1281 5.253 79.7677 4.93912 79.7677 4.47718" fill="#222222"/>
<path fill-rule="evenodd" clip-rule="evenodd" d="M28.5576 23.7659H24.2866C23.8781 23.7363 23.5537 23.4342 23.5237 23.0493V1.43887C23.5237 1.00654 23.8901 0.663048 24.3466 0.663048H28.3293C28.7438 0.680803 29.0742 0.994695 29.1042 1.38556V4.2105H29.1823C30.2215 1.48032 32.1738 0.207031 34.8049 0.207031C37.4781 0.207031 39.148 1.48032 40.3494 4.2105C41.3826 1.48032 43.7314 0.207031 46.2484 0.207031C48.0385 0.207031 49.9968 0.935472 51.1922 2.57002C52.5438 4.38816 52.2674 7.0295 52.2674 9.34511L52.2614 22.9841C52.2614 23.4165 51.895 23.7659 51.4385 23.7659H47.1734C46.7469 23.7363 46.4045 23.3987 46.4045 22.9841V11.5304C46.4045 10.6184 46.4886 8.34425 46.2844 7.47959C45.966 6.02864 45.0109 5.62 43.7735 5.62C42.7402 5.62 41.659 6.30106 41.2205 7.39076C40.7819 8.48046 40.824 10.3045 40.824 11.5304V22.9841C40.824 23.4165 40.4576 23.7659 40.001 23.7659H35.736C35.3035 23.7363 34.9671 23.3987 34.9671 22.9841L34.9611 11.5304C34.9611 9.12007 35.3636 5.57262 32.33 5.57262C29.2604 5.57262 29.3806 9.03123 29.3806 11.5304V22.9841C29.3806 23.4165 29.0141 23.7659 28.5576 23.7659" fill="#222222"/>
<path fill-rule="evenodd" clip-rule="evenodd" d="M107.496 0.207031C113.833 0.207031 117.264 5.57262 117.264 12.3951C117.264 18.9866 113.473 24.216 107.496 24.216C101.273 24.216 97.8848 18.8504 97.8848 12.1641C97.8848 5.43641 101.315 0.207031 107.496 0.207031V0.207031ZM107.532 4.61914C104.384 4.61914 104.186 8.84764 104.186 11.4831C104.186 14.1244 104.144 19.7624 107.496 19.7624C110.806 19.7624 110.962 15.2141 110.962 12.4425C110.962 10.6184 110.884 8.43901 110.325 6.7097C109.845 5.20544 108.89 4.61914 107.532 4.61914" fill="#222222"/>
<path fill-rule="evenodd" clip-rule="evenodd" d="M125.481 23.7659H121.228C120.802 23.7363 120.459 23.3987 120.459 22.9841L120.453 1.3678C120.489 0.971005 120.844 0.663048 121.276 0.663048H125.235C125.607 0.680803 125.914 0.929551 125.998 1.26712V4.57175H126.076C127.271 1.61653 128.947 0.207031 131.897 0.207031C133.813 0.207031 135.681 0.888095 136.883 2.75361C138 4.48292 138 7.39076 138 9.48132V23.0848C137.952 23.4638 137.597 23.7659 137.177 23.7659H132.894C132.503 23.7363 132.179 23.452 132.137 23.0848V11.3468C132.137 8.98385 132.413 5.52524 129.464 5.52524C128.425 5.52524 127.47 6.21223 126.995 7.25455C126.394 8.57522 126.316 9.88996 126.316 11.3468V22.9841C126.31 23.4165 125.938 23.7659 125.481 23.7659" fill="#222222"/>
<path fill-rule="evenodd" clip-rule="evenodd" d="M68.5765 13.4436C68.5765 15.0841 68.6185 16.4521 67.7775 17.909C67.0987 19.0934 66.0175 19.8219 64.8221 19.8219C63.1821 19.8219 62.221 18.59 62.221 16.7719C62.221 13.183 65.4828 12.5316 68.5765 12.5316V13.4436V13.4436ZM72.8835 23.7069C72.6012 23.9556 72.1927 23.9734 71.8744 23.8076C70.4567 22.6468 70.1984 22.1079 69.4235 21.0004C67.0807 23.3575 65.4168 24.0622 62.3832 24.0622C58.785 24.0622 55.9917 21.8769 55.9917 17.5004C55.9917 14.0832 57.8659 11.7557 60.545 10.6187C62.8638 9.61186 66.1016 9.4342 68.5765 9.15585V8.611C68.5765 7.61013 68.6546 6.42568 68.0539 5.56103C67.5373 4.78521 66.5401 4.4654 65.6571 4.4654C64.0291 4.4654 62.5814 5.2886 62.227 6.99422C62.1549 7.37325 61.8726 7.74635 61.4821 7.76412L57.3433 7.32586C56.9949 7.24888 56.6044 6.97053 56.7065 6.44345C57.6557 1.49242 62.197 0 66.2578 0C68.3362 0 71.0514 0.544851 72.6913 2.09649C74.7698 4.00939 74.5715 6.56189 74.5715 9.33944V15.9013C74.5715 17.8735 75.4005 18.7381 76.1814 19.8041C76.4517 20.1831 76.5118 20.6392 76.1634 20.9234C75.2924 21.64 73.7425 22.9725 72.8895 23.7187L72.8835 23.7069" fill="#222222"/>
<path fill-rule="evenodd" clip-rule="evenodd" d="M12.5848 13.4436C12.5848 15.0841 12.6268 16.4521 11.7858 17.909C11.107 19.0934 10.0318 19.8219 8.83036 19.8219C7.19044 19.8219 6.23532 18.59 6.23532 16.7719C6.23532 13.183 9.49715 12.5316 12.5848 12.5316V13.4436V13.4436ZM16.8918 23.7069C16.6095 23.9556 16.201 23.9734 15.8826 23.8076C14.465 22.6468 14.2127 22.1079 13.4318 21.0004C11.089 23.3575 9.43107 24.0622 6.3915 24.0622C2.79928 24.0622 0 21.8769 0 17.5004C0 14.0832 1.88021 11.7557 4.55334 10.6187C6.87206 9.61186 10.1099 9.4342 12.5848 9.15585V8.611C12.5848 7.61013 12.6629 6.42568 12.0682 5.56103C11.5455 4.78521 10.5484 4.4654 9.67135 4.4654C8.04344 4.4654 6.58973 5.2886 6.23532 6.99422C6.16323 7.37325 5.8809 7.74635 5.49645 7.76412L1.35159 7.32586C1.00318 7.24888 0.618725 6.97053 0.714838 6.44345C1.66996 1.49242 6.20528 0 10.2661 0C12.3445 0 15.0597 0.544851 16.6996 2.09649C18.778 4.00939 18.5798 6.56189 18.5798 9.33944V15.9013C18.5798 17.8735 19.4088 18.7381 20.1897 19.8041C20.466 20.1831 20.5261 20.6392 20.1777 20.9234C19.3067 21.64 17.7568 22.9725 16.9038 23.7187L16.8918 23.7069" fill="#222222"/>
</g>
<defs>
<clipPath id="clip0">
<rect width="138" height="41" fill="white"/>
</clipPath>
</defs>
</svg>
