<?xml version="1.0" encoding="UTF-8"?><svg width="61" height="61" viewBox="0 0 61 61" fill="none" xmlns="http://www.w3.org/2000/svg">
<path d="M54.1794 48.1267C46.7857 50.7372 38.8583 48.5687 34.0334 43.8439C33.2828 43.2142 31.3479 41.1375 30.3262 39.9073C27.578 36.6921 25.2052 33.1183 22.5405 29.9573V38.8981C22.5405 39.6446 22.9992 40.1533 22.9992 40.1533H19.6006C19.6006 40.1533 20.0551 39.6446 20.0593 38.8981V18.6563C23.2828 22.5262 26.0601 26.2584 29.2169 30.3493C29.2169 30.3493 34.7048 37.8973 37.2861 40.8414C39.2795 43.3018 42.724 45.9832 45.1427 46.8714C48.362 48.185 51.6481 48.3685 54.1794 47.8264V48.1267ZM6.16437 12.2676V11.9674C13.5497 9.36102 21.4813 11.5295 26.3062 16.2584C27.0526 16.884 28.9917 18.9523 30.0134 20.1867C32.7657 23.4061 35.1302 26.9715 37.8032 30.1367V21.1959C37.8032 20.4578 37.3403 19.9448 37.3403 19.9448H40.7307C40.7307 19.9448 40.2845 20.4578 40.272 21.1959V41.4419C37.0526 37.5679 34.2753 33.8397 31.1227 29.7488C31.1227 29.7488 25.6306 22.1925 23.0534 19.2568C21.0643 16.7922 17.6156 14.1066 15.2011 13.2184C11.9734 11.9132 8.69564 11.7213 6.16437 12.2676M0.171875 60.1992H60.1719V0.199219H0.171875V60.1992Z" fill="black"/>
</svg>
