<?xml version="1.0" encoding="UTF-8"?><svg width="87" height="61" viewBox="0 0 87 61" fill="none" xmlns="http://www.w3.org/2000/svg">
<mask id="mask0_1838_10255" style="mask-type:alpha" maskUnits="userSpaceOnUse" x="0" y="0" width="87" height="61">
<path d="M0.518555 0.158203H86.2035V60.0117H0.518555V0.158203Z" fill="white"/>
</mask>
<g mask="url(#mask0_1838_10255)">
<path fill-rule="evenodd" clip-rule="evenodd" d="M36.0975 6.70983C38.8633 3.83056 42.7129 2.04756 46.9656 2.04756C52.6359 2.04756 57.5502 5.19774 60.1964 9.89151C62.5453 8.84148 65.0894 8.29937 67.6623 8.30067C77.8689 8.30067 86.1539 16.6487 86.1539 26.9498C86.1539 37.2509 77.8689 45.5988 67.6623 45.5988C66.4148 45.5988 65.1989 45.4735 64.0081 45.2366C61.6927 49.3633 57.2667 52.167 52.2264 52.167C50.1743 52.171 48.1485 51.7055 46.3041 50.8061C43.9572 56.3189 38.4916 60.1936 32.1282 60.1936C25.4814 60.1936 19.8425 56.0039 17.6689 50.1131C16.7015 50.3172 15.7154 50.4198 14.7266 50.4193C6.81968 50.4193 0.424805 43.9299 0.424805 35.9599C0.424805 30.6046 3.30407 25.9423 7.57572 23.4222C6.66949 21.3346 6.20302 19.0826 6.20539 16.8068C6.20539 7.60826 13.6713 0.173828 22.8699 0.173828C28.2567 0.173828 33.0765 2.74123 36.1006 6.72621" fill="#00A1E0"/>
<path fill-rule="evenodd" clip-rule="evenodd" d="M12.9121 31.2815C12.8582 31.422 12.9313 31.4513 12.9486 31.4761C13.1096 31.5927 13.2731 31.6771 13.4369 31.7719C14.3126 32.235 15.138 32.3705 16.0011 32.3705C17.7589 32.3705 18.852 31.4349 18.852 29.9291V29.8995C18.852 28.5071 17.6172 27.9999 16.4642 27.6376L16.3133 27.5888C15.4407 27.3059 14.6878 27.0596 14.6878 26.4863V26.457C14.6878 25.9655 15.1288 25.6033 15.8093 25.6033C16.5653 25.6033 17.4663 25.855 18.0428 26.1734C18.0428 26.1734 18.2135 26.2837 18.2756 26.1189C18.3093 26.0298 18.6032 25.2432 18.6347 25.155C18.6681 25.0627 18.6095 24.9931 18.5493 24.9572C17.8878 24.5539 16.9742 24.2799 16.0292 24.2799L15.8537 24.2805C14.244 24.2805 13.1193 25.2539 13.1193 26.6463V26.6762C13.1193 28.1442 14.3605 28.623 15.5198 28.9538L15.7063 29.0118C16.5505 29.2713 17.2814 29.4969 17.2814 30.0891V30.1187C17.2814 30.6637 16.8057 31.0701 16.0433 31.0701C15.7469 31.0701 14.8022 31.065 13.7784 30.418C13.6546 30.3459 13.584 30.2939 13.4885 30.2356C13.4381 30.205 13.3121 30.1499 13.2573 30.315L12.9108 31.2789M38.6478 31.2789C38.5939 31.4194 38.667 31.4487 38.685 31.4736C38.8453 31.5902 39.0094 31.6746 39.1732 31.7694C40.049 32.2325 40.8743 32.368 41.7375 32.368C43.4953 32.368 44.5884 31.4324 44.5884 29.9266V29.897C44.5884 28.5046 43.3567 27.9974 42.2006 27.6351L42.0497 27.5863C41.1771 27.3034 40.4242 27.0571 40.4242 26.4837V26.4544C40.4242 25.963 40.8652 25.6007 41.5456 25.6007C42.3017 25.6007 43.1995 25.8524 43.7791 26.1709C43.7791 26.1709 43.9499 26.2812 44.0122 26.1164C44.0456 26.0273 44.3399 25.2407 44.3682 25.1525C44.4019 25.0602 44.343 24.9905 44.2832 24.9546C43.6216 24.5514 42.7081 24.2773 41.763 24.2773L41.5872 24.278C39.9775 24.278 38.8529 25.2514 38.8529 26.6438V26.6737C38.8529 28.1417 40.094 28.6205 41.2533 28.9513L41.4395 29.0092C42.2869 29.2688 43.0146 29.4944 43.0146 30.0866V30.1162C43.0146 30.6612 42.5389 31.0676 41.7766 31.0676C41.4795 31.0676 40.5322 31.0625 39.5116 30.4155C39.3878 30.3433 39.3153 30.2936 39.2214 30.2331C39.1896 30.2129 39.0413 30.155 38.9905 30.3125L38.644 31.2764M56.222 28.3278C56.222 29.1784 56.0633 29.8494 55.7527 30.3251C55.4427 30.7944 54.9746 31.0244 54.3225 31.0244C53.6704 31.0244 53.2042 30.7963 52.8986 30.3282C52.5908 29.8557 52.4355 29.1815 52.4355 28.331C52.4355 27.4804 52.5918 26.8126 52.8986 26.3432C53.2035 25.877 53.6672 25.6533 54.3225 25.6533C54.9777 25.6533 55.4439 25.8792 55.7527 26.3432C56.0652 26.8126 56.222 27.4804 56.222 28.331M57.69 26.7528C57.5454 26.2645 57.3215 25.8361 57.0222 25.4769C56.7226 25.1178 56.3449 24.828 55.8944 24.6201C55.4471 24.4106 54.9179 24.3051 54.3193 24.3051C53.7208 24.3051 53.1947 24.4112 52.7442 24.6201C52.2969 24.8293 51.9157 25.1178 51.6165 25.4769C51.3178 25.8361 51.0935 26.2645 50.9486 26.7528C50.8053 27.2379 50.7325 27.7671 50.7325 28.331C50.7325 28.8949 50.8053 29.4241 50.9486 29.9092C51.0926 30.3975 51.3172 30.8259 51.6165 31.1851C51.9161 31.5442 52.2969 31.8309 52.7442 32.0356C53.1947 32.2397 53.7239 32.3437 54.3193 32.3437C54.9147 32.3437 55.4439 32.2397 55.8913 32.0356C56.3386 31.8315 56.7198 31.5442 57.019 31.1851C57.318 30.8259 57.542 30.3975 57.6869 29.9092C57.8299 29.4241 57.9027 28.8949 57.9027 28.331C57.9027 27.7703 57.8299 27.2379 57.6869 26.7528M69.7521 30.785C69.7039 30.6423 69.5646 30.6962 69.5646 30.6962C69.3514 30.7777 69.1236 30.8533 68.881 30.8912C68.6366 30.9296 68.3644 30.9488 68.0778 30.9488C67.369 30.9488 66.8019 30.7374 66.3987 30.3188C65.9923 29.8998 65.7655 29.2257 65.7687 28.3121C65.7709 27.4804 65.9719 26.8567 66.3326 26.3779C66.6885 25.9054 67.2367 25.6596 67.9612 25.6596C68.566 25.6596 69.0291 25.7299 69.5142 25.8817C69.5142 25.8817 69.6292 25.9318 69.6843 25.7803C69.8132 25.4243 69.9083 25.1692 70.0466 24.7785C70.0857 24.6667 69.9899 24.6195 69.9549 24.6059C69.7647 24.5316 69.3155 24.4097 68.9752 24.3583C68.6571 24.3098 68.2885 24.2846 67.8727 24.2846C67.2552 24.2846 66.7071 24.3901 66.2377 24.5993C65.7683 24.8081 65.3714 25.097 65.0564 25.4561C64.7414 25.8153 64.502 26.2437 64.3413 26.732C64.1822 27.2171 64.1019 27.7495 64.1019 28.3134C64.1019 29.5293 64.4295 30.5153 65.0785 31.2367C65.7274 31.9613 66.704 32.3267 67.9766 32.3267C68.7295 32.3267 69.5013 32.1745 70.0558 31.955C70.0558 31.955 70.1616 31.9039 70.1156 31.7804L69.7533 30.785M72.3207 27.5088C72.391 27.0363 72.5205 26.6425 72.724 26.3369C73.0286 25.8707 73.4926 25.6155 74.1447 25.6155C74.7968 25.6155 75.2284 25.872 75.5371 26.3369C75.7418 26.6441 75.8313 27.052 75.8647 27.5088L72.305 27.5082L72.3207 27.5088ZM77.2665 26.4692C77.1415 25.9999 76.8318 25.5242 76.6302 25.3068C76.3089 24.9635 75.997 24.7209 75.6851 24.5886C75.2349 24.3971 74.7505 24.2989 74.2612 24.2997C73.6407 24.2997 73.0768 24.4046 72.62 24.6179C72.1632 24.8327 71.7789 25.1251 71.4765 25.4905C71.1744 25.8559 70.9473 26.2875 70.8023 26.7821C70.6574 27.2703 70.5844 27.8059 70.5844 28.3666C70.5844 28.9399 70.6603 29.4723 70.8096 29.9543C70.9605 30.4394 71.2034 30.8647 71.531 31.2175C71.8586 31.5735 72.2776 31.8507 72.7816 32.046C73.2825 32.2397 73.8905 32.3402 74.5867 32.338C76.0231 32.3333 76.7792 32.0136 77.0879 31.8403C77.143 31.8094 77.195 31.7562 77.1301 31.6028L76.8056 30.6924C76.7559 30.5566 76.6185 30.6057 76.6185 30.6057C76.2626 30.7387 75.7585 30.9775 74.5772 30.9743C73.8054 30.9731 73.2352 30.7453 72.8761 30.3884C72.5107 30.023 72.328 29.4906 72.2996 28.7345L77.2769 28.7383C77.2769 28.7383 77.408 28.7371 77.4215 28.6092C77.4269 28.5562 77.5919 27.5885 77.2731 26.4702L77.2665 26.4692ZM32.5339 27.5088C32.6042 27.0363 32.734 26.6425 32.9371 26.3369C33.2421 25.8707 33.7058 25.6155 34.3579 25.6155C35.01 25.6155 35.4415 25.872 35.7503 26.3369C35.9547 26.6441 36.0442 27.052 36.0779 27.5088L32.5182 27.5082L32.5339 27.5088ZM37.4797 26.4692C37.355 25.9999 37.045 25.5242 36.8434 25.3068C36.522 24.9635 36.2102 24.7209 35.8983 24.5886C35.4481 24.3971 34.9637 24.2989 34.4744 24.2997C33.8538 24.2997 33.29 24.4046 32.8332 24.6179C32.3764 24.8327 31.9921 25.1251 31.6897 25.4905C31.3882 25.8559 31.1604 26.2875 31.0155 26.7821C30.8709 27.2703 30.7982 27.8059 30.7982 28.3666C30.7982 28.9399 30.8735 29.4723 31.0237 29.9543C31.1743 30.4394 31.4175 30.8647 31.742 31.2175C32.0696 31.5735 32.4886 31.8507 32.9926 32.046C33.4935 32.2397 34.0983 32.3402 34.7976 32.338C36.2341 32.3333 36.9902 32.0136 37.2989 31.8403C37.3537 31.8094 37.406 31.7562 37.3408 31.6028L37.0163 30.6924C36.9662 30.5566 36.8289 30.6057 36.8289 30.6057C36.4729 30.7387 35.9689 30.9775 34.7876 30.9743C34.0189 30.9731 33.4456 30.7453 33.0865 30.3884C32.721 30.023 32.5383 29.4906 32.51 28.7345L37.4873 28.7383C37.4873 28.7383 37.6183 28.7371 37.6319 28.6092C37.6372 28.5562 37.8023 27.5885 37.4832 26.4702L37.4797 26.4692ZM21.7918 30.7535C21.5968 30.5979 21.5697 30.5598 21.5051 30.4586C21.4065 30.3065 21.3561 30.0901 21.3561 29.8128C21.3561 29.3781 21.501 29.0631 21.8003 28.852C21.7972 28.8527 22.2287 28.4803 23.2431 28.4929C23.6946 28.501 24.145 28.5394 24.5914 28.6079V30.8666H24.592C24.592 30.8666 23.962 31.0024 23.25 31.0452C22.2388 31.106 21.7915 30.7541 21.7946 30.7551L21.7918 30.7535ZM23.7701 27.2568C23.5685 27.242 23.307 27.2347 22.9952 27.2347C22.5699 27.2347 22.1572 27.2877 21.7729 27.3916C21.3854 27.4962 21.0358 27.6581 20.7365 27.8736C20.4364 28.0877 20.1896 28.3679 20.0151 28.6926C19.839 29.0203 19.7492 29.4046 19.7492 29.8393C19.7492 30.2803 19.8258 30.6615 19.977 30.9734C20.1251 31.2827 20.3482 31.5502 20.6259 31.7515C20.9022 31.9524 21.2433 32.1011 21.6371 32.1893C22.0277 32.2785 22.4688 32.3235 22.9539 32.3235C23.4642 32.3235 23.9714 32.2807 24.4628 32.1978C24.8814 32.1257 25.2984 32.0446 25.7135 31.9547C25.8792 31.9165 26.0631 31.8664 26.0631 31.8664C26.186 31.8353 26.1765 31.7039 26.1765 31.7039L26.1737 27.1676C26.1737 26.1722 25.9078 25.4319 25.383 24.9751C24.8601 24.5183 24.0946 24.2884 23.1023 24.2884C22.7306 24.2884 22.1289 24.3388 21.7697 24.4109C21.7697 24.4109 20.6861 24.6213 20.2388 24.9716C20.2388 24.9716 20.1405 25.0321 20.194 25.1692L20.5468 26.1142C20.5906 26.2368 20.71 26.1949 20.71 26.1949C20.71 26.1949 20.7475 26.1801 20.7916 26.1539C21.7461 25.6341 22.9558 25.6499 22.9558 25.6499C23.4913 25.6499 23.9071 25.7586 24.1844 25.9712C24.4556 26.1794 24.5939 26.4941 24.5939 27.1557V27.3658C24.1686 27.304 23.7748 27.2684 23.7748 27.2684L23.7701 27.2568ZM63.7774 24.6957C63.7846 24.6791 63.7883 24.6612 63.7885 24.6431C63.7886 24.625 63.785 24.6071 63.7781 24.5904C63.7711 24.5737 63.7608 24.5586 63.7479 24.5459C63.735 24.5333 63.7196 24.5234 63.7028 24.5168C63.618 24.4846 63.1956 24.3955 62.8711 24.3753C62.2474 24.3363 61.9009 24.4415 61.589 24.5813C61.2809 24.7203 60.9401 24.9436 60.7511 25.2019L60.7504 24.5971C60.7504 24.5139 60.6915 24.4468 60.6077 24.4468H59.3351C59.2525 24.4468 59.1927 24.5139 59.1927 24.5971V32C59.1927 32.04 59.2087 32.0783 59.2369 32.1066C59.2652 32.1349 59.3036 32.1508 59.3436 32.1509H60.6477C60.6877 32.1508 60.726 32.1349 60.7542 32.1066C60.7825 32.0783 60.7983 32.04 60.7983 32V28.2828C60.7983 27.7851 60.8531 27.2905 60.9624 26.9786C61.0702 26.6702 61.2167 26.4242 61.3972 26.2478C61.5694 26.0774 61.7801 25.951 62.0114 25.8792C62.2286 25.8169 62.4534 25.7853 62.6793 25.7853C62.9392 25.7853 63.2243 25.8521 63.2243 25.8521C63.32 25.8628 63.3733 25.8042 63.4057 25.7179C63.4911 25.4908 63.7333 24.8107 63.7806 24.6752" fill="#FFFFFE"/>
<path fill-rule="evenodd" clip-rule="evenodd" d="M51.5964 21.2785C51.4352 21.2297 51.2712 21.1908 51.1053 21.1619C50.8821 21.1246 50.6561 21.1071 50.4299 21.1096C49.5311 21.1096 48.8226 21.3635 48.3252 21.865C47.8313 22.3627 47.4952 23.121 47.3266 24.1187L47.2658 24.4554H46.1377C46.1377 24.4554 46.0001 24.4497 45.9711 24.6L45.7859 25.6333C45.773 25.7322 45.8155 25.7939 45.9478 25.7933H47.0459L45.9317 32.0127C45.8445 32.5136 45.7446 32.9256 45.634 33.2378C45.525 33.5459 45.4186 33.7768 45.2875 33.9444C45.1606 34.1066 45.0402 34.226 44.8326 34.2956C44.6613 34.3533 44.4641 34.3797 44.2479 34.3797C44.1276 34.3797 43.9676 34.3596 43.8495 34.336C43.7313 34.3127 43.6699 34.2862 43.5814 34.249C43.5814 34.249 43.4525 34.1999 43.4018 34.329C43.3605 34.4346 43.0679 35.2394 43.0332 35.339C42.998 35.4373 43.0474 35.5148 43.1098 35.5371C43.256 35.5894 43.3646 35.6228 43.5637 35.6697C43.8403 35.735 44.0734 35.7391 44.2917 35.7391C44.7491 35.7391 45.1659 35.6748 45.5115 35.55C45.8593 35.4243 46.162 35.2054 46.4298 34.909C46.7193 34.5892 46.9014 34.2544 47.0756 33.7976C47.2479 33.3449 47.3947 32.7829 47.5122 32.128L48.6317 25.7933H50.2686C50.2686 25.7933 50.4066 25.7983 50.4352 25.6487L50.6205 24.6154C50.6334 24.5165 50.5912 24.4548 50.4582 24.4554H48.8696C48.8775 24.4195 48.9496 23.8607 49.132 23.3346C49.2098 23.11 49.3563 22.9288 49.4804 22.8044C49.5963 22.6859 49.739 22.5971 49.8965 22.5455C50.0692 22.4921 50.2492 22.4661 50.4299 22.4686C50.5795 22.4686 50.7263 22.4865 50.8381 22.5099C50.9922 22.5426 51.052 22.5599 51.0924 22.5719C51.2543 22.6214 51.276 22.5735 51.3078 22.4951L51.6877 21.4517C51.7268 21.3396 51.6317 21.2923 51.5964 21.2785M29.3958 32.0259C29.3958 32.1091 29.3366 32.1768 29.2534 32.1768H27.9357C27.8522 32.1768 27.793 32.1091 27.793 32.0259V21.4199C27.793 21.337 27.8522 21.2699 27.9357 21.2699H29.2534C29.3366 21.2699 29.3958 21.337 29.3958 21.4199V32.0259" fill="#FFFFFE"/>
</g>
</svg>
