<?xml version="1.0" encoding="UTF-8"?><svg width="183" height="32" viewBox="0 0 183 32" fill="none" xmlns="http://www.w3.org/2000/svg">
<path d="M3.02539 3.12891V11.788H38.1907V3.12891H3.02539ZM3.02539 20.3811V29.0402H38.1907V20.3811H3.02539Z" fill="#BBBCBE"/>
<path d="M57.359 3.12891C54.6172 3.12891 52.7373 3.79784 51.4761 4.78141C49.9928 5.9104 49.3609 7.43599 49.3609 8.94572C49.3609 10.2466 49.7866 11.4046 50.4185 12.3168C51.4364 13.7578 54.3554 15.3257 56.4997 16.415C58.5356 17.433 60.4631 18.2553 61.5894 19.5879C62.3271 20.463 62.7131 21.3567 62.7131 22.7607C62.7131 24.3418 62.0151 25.5501 60.9284 26.3962C59.8365 27.2423 58.3135 27.7182 56.698 27.7182C52.9752 27.7182 51.016 26.6183 49.8897 22.298L48.6338 22.6285C49.0938 24.1726 49.5037 25.6717 49.8236 27.8504C51.8568 28.5881 54.329 29.0402 56.3675 29.0402C59.4954 29.0402 61.8353 28.1254 63.308 26.7928C64.6433 25.5977 65.291 23.9928 65.291 22.1658C65.291 20.4445 64.5084 18.8449 63.7707 18.0014C62.2584 16.2802 60.233 15.4394 57.4912 14.0354C55.2782 12.9117 53.9059 12.137 52.9964 11.2592C52.3301 10.6273 51.8066 9.46659 51.8066 8.48302C51.8066 7.39369 52.2191 6.47622 53.0625 5.77291C54.0461 4.93476 55.4712 4.45091 57.2268 4.45091C61.3753 4.45091 62.1077 5.72532 62.8453 9.34232L64.1012 9.01182C63.784 7.42806 63.4507 5.56139 63.2419 4.12041C61.4467 3.42239 59.6091 3.12891 57.359 3.12891ZM107.595 3.59161V4.64921C110.226 4.64921 110.437 4.829 110.437 7.35932V24.8759C110.437 27.3692 110.226 27.5199 107.595 27.5199V28.5114H119.03C122.684 28.5114 124.734 27.6626 126.103 26.3301C127.507 24.9948 128.086 23.2604 128.086 21.5048C128.086 19.572 127.105 18.1892 125.839 17.2082C124.329 16.0449 122.309 15.4288 120.022 15.3574V15.2915C122.235 14.9742 123.729 14.255 124.781 13.3084C126.082 12.1477 126.5 10.6089 126.5 9.27634C126.5 7.4837 125.588 6.09295 124.252 5.17813C122.354 3.909 120.278 3.59171 117.047 3.59171H107.595V3.59161ZM92.987 4.18651C91.4376 4.18651 90.2558 4.76819 89.4176 5.57461C88.2569 6.7697 87.699 8.39048 87.699 10.5321V12.7134H85.1211V13.8371H87.699V25.2725C87.699 27.4194 87.5139 27.6521 85.055 27.6521V28.5114H92.9209V27.6521C90.2848 27.6521 90.1447 27.4486 90.1447 25.3386V13.8371H94.5734V12.7134H90.1447V10.6643C90.1447 8.16838 90.5651 6.87811 91.2684 6.03731C91.7576 5.50851 92.2837 5.24411 92.987 5.24411C94.0763 5.24411 94.5179 5.98972 94.9039 6.76442C95.2926 7.53911 95.6522 8.28472 96.4903 8.28472C97.1275 8.28472 97.4818 7.93307 97.4818 7.22712C97.4818 6.5952 96.9795 5.71475 95.9615 5.04581C95.2529 4.5884 94.4254 4.18651 92.987 4.18651V4.18651ZM167.945 4.18651C166.646 4.99293 165.435 5.39218 163.714 5.64071V6.36782C165.613 6.36782 165.829 6.64544 165.829 8.68132V25.3386C165.829 27.3745 165.753 27.6521 163.714 27.6521V28.5114H170.258V27.6521C168.325 27.6521 168.275 27.3745 168.275 25.3386V21.637L170.192 19.654L175.943 28.5114H179.975V27.6521C178.923 27.6865 178.106 27.5622 177.331 26.3301L171.977 18.1997L175.678 14.6303C176.485 13.8556 177.043 13.607 178.058 13.5727V12.7134H172.836V13.5727C174.526 13.5727 174.311 14.1491 173.365 15.0269L168.341 19.9184H168.275V4.38481L167.945 4.18662L167.945 4.18651ZM114.073 4.97971H117.444C119.906 4.97971 121.479 5.49265 122.468 6.30171C123.237 6.93363 123.79 8.34553 123.79 9.54062C123.79 11.2249 123.219 12.4649 122.203 13.3083C120.934 14.3633 118.941 14.8286 116.519 14.8286H113.015V6.16951C113.015 5.22032 113.163 4.97971 114.073 4.97971V4.97971ZM100.258 8.28472C99.8033 11.9705 98.3094 12.8324 96.0937 13.0439V13.8371H98.7377V25.3386C98.7377 28.0804 100.385 28.908 102.175 28.908C103.613 28.908 104.7 28.4585 105.612 27.6521L105.083 26.8589C104.377 27.3877 103.716 27.7182 102.902 27.7182C101.675 27.7182 101.183 26.8536 101.183 25.2064V13.8371H104.885V12.7134H101.183V8.28472H100.258V8.28472ZM75.5366 12.3168C73.2865 12.3168 71.6181 12.9646 70.2485 14.2337C68.8446 15.6007 68.1333 17.8058 68.1333 20.5794C68.1333 23.7786 68.9451 25.8912 70.3146 27.1894C71.7213 28.4188 73.4319 28.908 75.5366 28.908C77.7496 28.908 79.4206 28.3845 80.8246 27.1233C82.1624 25.8224 83.0059 23.7442 83.0059 20.5794C83.0059 17.8058 82.1968 15.6721 80.8246 14.2998C79.455 12.999 77.8871 12.3168 75.5366 12.3168ZM136.811 12.3168C134.953 12.3168 133.76 12.7795 132.845 13.3083C131.719 13.9746 130.995 14.9106 130.995 15.754C130.995 16.2855 131.317 16.8116 131.986 16.8116C132.724 16.8116 133.068 16.4441 133.242 15.9523C133.562 15.1776 133.842 14.5827 134.3 14.2337C134.932 13.7367 135.624 13.4405 136.679 13.4405C137.84 13.4405 138.668 13.7948 139.191 14.4981C139.651 15.0957 139.786 16.1374 139.786 16.9438V18.4641L137.737 18.9269C135.487 19.416 133.713 20.1669 132.515 20.976C130.971 21.9913 130.334 23.2604 130.334 24.8759C130.334 26.2111 130.878 27.1814 131.722 27.8504C132.637 28.5881 133.834 28.908 134.961 28.908C137.279 28.908 138.66 28.1174 139.852 26.9911H139.984C140.304 28.1465 141.074 28.7758 142.298 28.7758C143.215 28.7758 143.815 28.5932 144.413 28.3131L144.215 27.4538C143.935 27.6283 143.636 27.7182 143.289 27.7182C142.589 27.7182 142.232 27.0519 142.232 25.4708V17.2082C142.232 15.6641 141.951 14.7255 141.042 13.7049C140.161 12.724 138.921 12.3168 136.812 12.3168H136.811ZM149.767 12.3168C148.606 13.1603 147.409 13.5251 145.867 13.771V14.5642C147.726 14.5298 147.916 14.7758 147.916 16.8116V25.3386C147.916 27.4486 147.76 27.6521 145.867 27.6521V28.5114H152.014V27.6521C150.362 27.6521 150.296 27.4486 150.296 25.3386V16.8777C151.702 14.9423 153.315 13.5727 154.791 13.5727C155.737 13.5727 156.38 13.8451 156.84 14.2998C157.506 15.0058 157.633 16.103 157.633 17.4726V25.3386C157.633 27.4486 157.538 27.6521 155.848 27.6521V28.5114H161.797V27.6521C160.216 27.6521 160.079 27.3718 160.079 25.4047V17.3404C160.079 15.4817 159.632 14.2152 158.823 13.4405C158.051 12.7029 156.961 12.3168 155.452 12.3168C153.519 12.3168 151.702 13.4352 150.296 15.2252H150.23L150.098 12.5151L149.767 12.3169L149.767 12.3168ZM75.4705 13.4405C76.9485 13.4405 78.1647 13.9085 78.9738 14.8947C79.9203 16.1242 80.428 17.8719 80.428 20.5794C80.428 23.4243 79.7855 25.2037 78.9077 26.3301C78.1012 27.2423 77.0119 27.8504 75.5366 27.8504C74.0612 27.8504 72.9031 27.2423 72.0994 26.3301C71.2215 25.2037 70.6451 23.4243 70.6451 20.5794C70.6451 17.8719 71.1554 16.1242 72.0994 14.8947C72.9401 13.9085 74.0665 13.4405 75.4705 13.4405V13.4405ZM113.015 16.1506H117.378C120.255 16.1506 122.23 16.653 123.459 17.6048C124.718 18.554 125.376 19.8919 125.376 21.4387C125.376 23.2683 124.831 24.5956 123.988 25.4708C122.793 26.7029 121.196 27.1894 118.7 27.1894H114.337C113.248 27.1894 113.015 26.9435 113.015 25.4708V16.1506ZM139.786 19.5218V25.7352C138.905 26.6103 137.742 27.586 136.018 27.586C134.966 27.586 134.167 27.2237 133.639 26.7267C133.11 26.2032 132.912 25.4628 132.912 24.5454C132.912 22.9325 133.858 21.9754 135.225 21.2404C136.523 20.4339 138.274 19.9421 139.786 19.5218V19.5218Z" fill="#212121"/>
</svg>
