<?xml version="1.0" encoding="UTF-8"?><svg width="116" height="47" viewBox="0 0 116 47" fill="none" xmlns="http://www.w3.org/2000/svg">
<g clip-path="url(#clip0_1838_10271)">
<path d="M59.3357 0.0921978C63.4483 -0.0493672 67.5879 0.569218 71.4668 1.94565C77.3023 3.99415 82.5176 7.74821 86.3338 12.611C88.0125 14.7443 89.4186 17.0893 90.5205 19.5703C90.7159 19.9832 90.8664 20.4472 90.7618 20.9072C90.6337 21.6794 89.9568 22.3178 89.1782 22.395C88.3697 22.5132 87.5341 22.0087 87.2458 21.2468C85.0544 16.0902 81.3146 11.6111 76.6495 8.51054C73.7656 6.58337 70.5312 5.18003 67.1521 4.39435C62.7947 3.3751 58.2069 3.3751 53.8485 4.39124C47.6255 5.82426 41.9276 9.39374 37.9089 14.3536C36.205 16.4434 34.798 18.7729 33.7374 21.2513C33.5079 21.8272 32.9805 22.2787 32.3651 22.3798C31.7717 22.4943 31.1258 22.2894 30.712 21.8474C30.2242 21.3587 30.0646 20.5775 30.3162 19.936C33.2352 13.0346 38.6402 7.23703 45.2855 3.78611C49.6137 1.52073 54.4555 0.257108 59.3357 0.0921978" fill="#F49813"/>
<path d="M53.9012 21.3405C53.8766 20.982 54.2157 20.7139 54.5517 20.7054C54.9884 20.6936 55.4263 20.6973 55.8639 20.7035C56.1679 20.7139 56.5228 20.9165 56.5216 21.2579C56.5372 25.2681 56.5121 29.2795 56.535 33.292C58.1598 31.4852 59.7986 29.6884 61.4292 27.887C61.7504 27.5703 62.0042 27.0905 62.5037 27.0492C63.1767 27.0214 63.8514 27.0379 64.5252 27.0389C64.7849 27.0155 65.0747 27.2536 64.9835 27.5307C64.877 27.7446 64.6816 27.8915 64.5221 28.0613C62.7589 29.8231 60.989 31.5787 59.2348 33.3481C60.9293 35.2825 62.6003 37.2366 64.2872 39.1781C64.5042 39.4544 64.7759 39.6889 64.9578 39.9934C65.0912 40.2315 64.8702 40.5213 64.615 40.5325C64.0549 40.564 63.4934 40.5325 62.9319 40.546C62.6399 40.5392 62.3241 40.5819 62.059 40.4314C61.7796 40.2711 61.6098 39.9845 61.4099 39.7432C59.7828 37.6943 58.1665 35.6374 56.5336 33.592C56.517 35.6091 56.5287 37.6252 56.5273 39.6408C56.5211 39.8735 56.5687 40.1538 56.3661 40.3236C56.0435 40.6349 55.5634 40.5258 55.1609 40.546C54.8037 40.5338 54.3859 40.612 54.0957 40.3483C53.9341 40.2225 53.8917 40.0078 53.8981 39.8169C53.9025 33.6572 53.8962 27.4984 53.9012 21.3405" fill="#3069B5"/>
<path d="M46.4893 27.0059C47.3051 26.7435 48.2247 26.6936 49.0238 27.0395C49.3042 27.1712 49.6299 27.4519 49.5031 27.7979C49.3751 28.2322 49.266 28.6715 49.1133 29.0983C49.0005 29.4046 48.6451 29.5184 48.346 29.4586C47.673 29.3431 47.0122 29.1208 46.3222 29.1432C45.8407 29.132 45.3964 29.3903 45.0671 29.725C44.5357 30.2447 44.2607 30.9715 44.1372 31.6926C44.0393 32.2136 44.0672 32.746 44.0627 33.2724C44.0627 35.4849 44.0635 37.6986 44.0623 39.911C44.0936 40.2749 43.7173 40.522 43.3888 40.5345C42.9378 40.5408 42.4877 40.5467 42.0371 40.5309C41.7114 40.5139 41.3449 40.2762 41.3871 39.9097C41.3853 35.8128 41.3826 31.7173 41.388 27.6204C41.3602 27.213 41.8116 26.9915 42.1657 27.0297C42.6099 27.0589 43.2163 26.8918 43.5052 27.3388C43.7244 27.8571 43.8286 28.4169 44.0344 28.9398C44.6538 28.0898 45.475 27.3405 46.4893 27.0059" fill="#3069B5"/>
<path d="M0.5 27.3174C0.625332 27.1736 0.771777 27.0182 0.980664 27.033C1.5925 27.0271 2.20613 27.0137 2.81751 27.042C3.12793 27.0509 3.34175 27.3237 3.38713 27.6125C3.98863 30.0585 4.57936 32.5081 5.17817 34.955C5.3538 35.7106 5.56764 36.4585 5.68219 37.2271C5.80033 37.9176 5.8237 38.6184 5.93599 39.3102C6.09053 38.3228 6.22889 37.3291 6.49527 36.3646C7.27826 33.4442 8.0608 30.5244 8.84469 27.6049C8.90579 27.272 9.21889 27.0353 9.55175 27.0353C10.2328 27.0182 10.9151 27.0299 11.5962 27.0299C11.9614 27.0128 12.3522 27.2262 12.4402 27.6004C13.0251 29.7293 13.6029 31.8621 14.1855 33.9928C14.539 35.3728 15.0021 36.7294 15.2021 38.1453C15.2573 38.5353 15.3112 38.9261 15.3916 39.3133C15.6112 37.0888 16.1836 34.9244 16.6544 32.7462C17.043 31.0131 17.4229 29.2783 17.816 27.5451C17.874 27.197 18.2423 27.0218 18.5667 27.0316C19.1175 27.0285 19.6691 27.0128 20.2189 27.0407C20.5455 27.0501 20.7332 27.4112 20.6182 27.7024C19.5132 31.78 18.4122 35.8602 17.3067 39.9377C17.2473 40.2648 16.9625 40.5199 16.6288 40.5253C15.7752 40.5532 14.92 40.532 14.0664 40.5365C13.7605 40.5554 13.437 40.3914 13.3831 40.0693C12.619 37.2653 11.8702 34.4564 11.1132 31.6501C10.8392 30.6739 10.7283 29.6619 10.6133 28.6578C10.4727 29.5518 10.403 30.4606 10.1649 31.3388C9.39004 34.2282 8.61064 37.1189 7.83394 40.0087C7.74635 40.4768 7.21133 40.5702 6.81332 40.5397C6.01955 40.5253 5.22579 40.5581 4.43291 40.5253C4.15035 40.5262 3.93249 40.3061 3.88172 40.0393C2.76766 35.9779 1.65719 31.9146 0.542227 27.8542C0.503594 27.6768 0.508535 27.4958 0.5 27.3174Z" fill="#3069B5"/>
<path d="M100.602 27.0424C101.181 27.0325 101.763 27.0302 102.342 27.0424C102.695 27.0474 103.027 27.2885 103.138 27.6255C104.138 30.2408 105.132 32.8611 106.132 35.4778C106.34 36.0088 106.486 36.5627 106.58 37.1251C106.993 35.573 107.543 34.0627 108.026 32.5309C108.564 30.8747 109.102 29.218 109.642 27.5612C109.722 27.2729 109.997 27.0761 110.289 27.0518C110.762 27.0168 111.238 27.0474 111.712 27.0347C111.989 27.0379 112.32 27.0055 112.531 27.2279C112.668 27.3438 112.638 27.5364 112.581 27.687C110.982 32.2488 109.388 36.8129 107.791 41.376C107.513 42.1361 107.299 42.9317 106.853 43.6154C106.211 44.6567 105.172 45.4064 104.031 45.8121C103.632 45.9356 103.22 46.2096 102.791 46.056C102.486 45.9783 102.369 45.6616 102.207 45.4289C102.09 45.2178 101.874 45.0223 101.919 44.7595C101.94 44.499 102.149 44.287 102.395 44.2173C102.877 44.0511 103.367 43.8679 103.757 43.5278C104.704 42.7259 105.291 41.54 105.514 40.3329C105.363 39.797 105.083 39.3042 104.88 38.7854C103.354 35.2411 101.829 31.6954 100.301 28.1524C100.209 27.9205 100.073 27.6995 100.047 27.448C100.05 27.1718 100.367 27.0505 100.602 27.0424" fill="#3069B5"/>
<path d="M29.4934 28.7561C28.6615 28.9107 27.9027 29.4287 27.4804 30.1663C26.7748 31.3625 26.6935 32.8059 26.7253 34.1625C26.7756 35.3906 26.9728 36.7006 27.7563 37.6933C28.3407 38.4399 29.3011 38.815 30.2347 38.8006C31.1326 38.8294 32.0733 38.5253 32.682 37.8425C33.4595 36.9921 33.7093 35.812 33.8162 34.6993C33.8634 33.6064 33.8854 32.4936 33.602 31.4263C33.3765 30.5247 32.9002 29.6231 32.0764 29.1375C31.3096 28.6671 30.3622 28.6232 29.4934 28.7561V28.7561ZM29.8447 26.811C31.35 26.7184 32.9273 27.0311 34.1697 27.9228C35.2811 28.7135 36.0358 29.9318 36.3884 31.2381C36.8076 32.7977 36.8058 34.4621 36.4257 36.0299C36.0677 37.475 35.2304 38.8375 33.9672 39.6587C32.6172 40.5544 30.9214 40.7871 29.3371 40.5962C27.9872 40.43 26.6718 39.8379 25.7321 38.8433C24.6275 37.6861 24.0789 36.0919 23.9649 34.516C23.826 32.7685 24.0938 30.9187 25.0659 29.4264C25.7851 28.3033 26.9284 27.4781 28.2036 27.1016C28.7355 26.9355 29.2904 26.8582 29.8447 26.811" fill="#3069B5"/>
<path d="M74.2483 28.684C73.423 28.737 72.6265 29.2119 72.2582 29.9651C71.5385 31.3582 71.5238 32.9794 71.5597 34.5113C71.6172 35.5121 71.7258 36.5453 72.1922 37.4491C72.5075 38.0578 73.0803 38.5385 73.7577 38.6858C74.794 38.9351 76.0137 38.724 76.7504 37.9051C77.4602 37.0969 77.6938 35.9982 77.8029 34.9582C77.8779 33.7728 77.8825 32.563 77.5882 31.4026C77.386 30.6268 77.0438 29.852 76.4292 29.3128C75.8399 28.7941 75.0186 28.5941 74.2483 28.684V28.684ZM77.7993 21.1685C77.7805 20.8541 78.1017 20.6533 78.381 20.6291C78.828 20.6048 79.2764 20.6164 79.7242 20.6214C80.0656 20.6183 80.4475 20.8721 80.3981 21.2512C80.3981 27.4388 80.3994 33.6253 80.3972 39.812C80.4205 40.1314 80.106 40.3794 79.8109 40.3987C79.4547 40.4176 79.0976 40.4176 78.7427 40.3929C78.4924 40.3771 78.2499 40.2168 78.1646 39.9773C78.0307 39.5753 77.961 39.1575 77.859 38.7487C77.365 39.419 76.7279 40.0119 75.9365 40.3062C74.8075 40.7217 73.551 40.7284 72.3908 40.4454C71.225 40.1651 70.2098 39.3642 69.6473 38.3098C68.7646 36.7003 68.6599 34.8068 68.7153 33.0113C68.7467 31.4772 69.0396 29.8587 70.039 28.6413C70.7929 27.6095 72.0282 27.0173 73.2757 26.8624C74.437 26.6926 75.6961 26.8879 76.6574 27.5915C77.112 27.9113 77.4759 28.3403 77.8007 28.7887C77.7916 26.2492 77.7939 23.7089 77.7993 21.1685" fill="#3069B5"/>
<path d="M90.2946 28.7615C89.8805 28.846 89.4793 29.0121 89.1446 29.2713C88.4753 29.7924 88.1429 30.6204 87.9654 31.4245C87.7071 32.7003 87.7107 34.0178 87.8442 35.308C87.9691 36.2558 88.2071 37.2674 88.9021 37.9682C89.4681 38.5625 90.3217 38.7804 91.1203 38.7413C91.9793 38.7723 92.8732 38.4525 93.4271 37.7778C94.1198 36.94 94.3151 35.8255 94.4162 34.7756C94.4805 33.5412 94.4813 32.2771 94.1346 31.0786C93.9154 30.332 93.5146 29.5894 92.8385 29.164C92.0938 28.6753 91.1517 28.6303 90.2946 28.7615ZM89.1446 27.067C90.3365 26.7369 91.6122 26.7175 92.8161 26.993C93.9347 27.2522 94.9823 27.8801 95.6696 28.81C96.3964 29.7632 96.7634 30.9452 96.9161 32.123C97.0487 33.0313 97.0105 33.9513 97.0118 34.8664C97.0118 36.5177 97.0118 38.1695 97.0073 39.8204C97.0253 40.0216 96.8982 40.1999 96.7342 40.3046C96.457 40.4753 96.1134 40.3999 95.8043 40.4192C95.4576 40.4165 95.0016 40.447 94.8129 40.0863C94.6287 39.6622 94.5906 39.1892 94.4723 38.7431C94.0074 39.3082 93.5259 39.8913 92.8529 40.2179C91.8278 40.7246 90.6293 40.695 89.5323 40.4807C88.19 40.2157 86.9538 39.4219 86.1946 38.2782C85.2904 36.9463 84.9624 35.3021 84.975 33.7132C84.9638 32.1643 85.2669 30.5629 86.1282 29.2525C86.8168 28.1811 87.9218 27.4053 89.1446 27.067" fill="#3069B5"/>
<path d="M113.151 37.2124C112.47 37.4626 112.041 38.2487 112.215 38.9585C112.392 39.7918 113.362 40.3605 114.17 40.0524C114.916 39.8246 115.386 38.9742 115.155 38.2245C114.952 37.3809 113.951 36.8822 113.151 37.2124ZM113.246 36.8562C113.65 36.7924 114.089 36.7879 114.464 36.9752C115.103 37.2654 115.563 37.9514 115.493 38.6647C115.546 39.5155 114.831 40.2761 114.014 40.4131C113.094 40.6085 112.105 39.9423 111.917 39.025C111.676 38.1018 112.317 37.0628 113.246 36.8562Z" fill="#3069B5"/>
<path d="M113.435 37.8936C113.434 38.0868 113.433 38.28 113.435 38.4745C113.605 38.4641 113.779 38.4745 113.946 38.4282C114.103 38.3631 114.088 38.1632 114.045 38.0293C113.882 37.8703 113.641 37.9116 113.435 37.8936ZM112.924 37.5792C113.413 37.607 113.961 37.4691 114.401 37.7418C114.756 38.0082 114.584 38.5877 114.183 38.7112C114.299 39.0167 114.46 39.3006 114.606 39.5917C114.421 39.5953 114.239 39.5984 114.058 39.6016C113.926 39.332 113.797 39.0593 113.671 38.7876C113.591 38.7853 113.513 38.7844 113.435 38.7831C113.434 39.0549 113.434 39.3266 113.434 39.5984C113.261 39.5962 113.092 39.5939 112.922 39.5926C112.923 38.921 112.921 38.2494 112.924 37.5792" fill="#3069B5"/>
</g>
<defs>
<clipPath id="clip0_1838_10271">
<rect width="115" height="46.0345" fill="white" transform="translate(0.5 0.0664062)"/>
</clipPath>
</defs>
</svg>
