<?xml version="1.0" encoding="UTF-8"?>
<svg width="44" height="44" viewBox="0 0 44 44" fill="none" xmlns="http://www.w3.org/2000/svg">
<rect width="44" height="44" rx="22" fill="#D9E8E5"/>
<path d="M17.0417 18.7083C14.7667 20.9833 14.7667 24.6833 17.0417 26.9583C18.1834 28.1 19.675 28.6667 21.1667 28.6667C22.6584 28.6667 24.15 28.1 25.2917 26.9583C28.1917 24.0583 28.6667 15.3333 28.6667 15.3333C28.6667 15.3333 19.9417 15.8083 17.0417 18.7083ZM24.1167 25.7833C23.325 26.5667 22.2834 27 21.1667 27C20.425 27 19.725 26.7917 19.1 26.4333C19.8667 24.0333 21.2834 21.925 23.1667 20.3333C20.975 21.4667 19.1334 23.2167 17.8584 25.3333C16.625 23.7 16.7334 21.375 18.225 19.8833C19.675 18.4333 23.7 17.5417 26.8334 17.1667C26.4584 20.3 25.5667 24.325 24.1167 25.7833Z" fill="black"/>
</svg>
