<?xml version="1.0" encoding="UTF-8"?>
<svg width="44" height="44" viewBox="0 0 44 44" fill="none" xmlns="http://www.w3.org/2000/svg">
<rect width="44" height="44" rx="22" fill="#D9E8E5"/>
<path d="M26.9998 22.8333V28.6667H15.3332V17H19.5165C19.5582 16.4083 19.6998 15.85 19.9165 15.3333H15.3332C14.4165 15.3333 13.6665 16.0833 13.6665 17V28.6667C13.6665 29.5833 14.4165 30.3333 15.3332 30.3333H26.9998C27.9165 30.3333 28.6665 29.5833 28.6665 28.6667V24.5L26.9998 22.8333ZM25.7498 27H16.5832L18.8748 24.0583L20.5082 26.025L22.7998 23.075L25.7498 27ZM28.0832 19.4083C28.4498 18.825 28.6665 18.15 28.6665 17.4167C28.6665 15.3417 26.9915 13.6667 24.9165 13.6667C22.8415 13.6667 21.1665 15.3417 21.1665 17.4167C21.1665 19.4917 22.8415 21.1667 24.9082 21.1667C25.6415 21.1667 26.3248 20.95 26.8998 20.5833L29.4998 23.1833L30.6832 22L28.0832 19.4083ZM24.9165 19.5C23.7665 19.5 22.8332 18.5667 22.8332 17.4167C22.8332 16.2667 23.7665 15.3333 24.9165 15.3333C26.0665 15.3333 26.9998 16.2667 26.9998 17.4167C26.9998 18.5667 26.0665 19.5 24.9165 19.5Z" fill="black"/>
</svg>
