<?xml version="1.0" encoding="UTF-8"?>
<svg width="24" height="24" fill="none" xmlns="http://www.w3.org/2000/svg"><path d="M20.182 2H3.818A1.818 1.818 0 002 3.818v16.364C2 21.186 2.814 22 3.818 22h16.364A1.818 1.818 0 0022 20.182V3.818A1.818 1.818 0 0020.182 2zM8.322 18.364H5.64v-8.63h2.682v8.63zM6.954 8.5a1.564 1.564 0 110-3.127 1.564 1.564 0 010 3.127zm11.413 9.863h-2.68v-4.197c0-1-.018-2.288-1.393-2.288-1.396 0-1.61 1.09-1.61 2.216v4.269h-2.68v-8.63h2.572v1.18h.037c.358-.678 1.232-1.394 2.537-1.394 2.716 0 3.217 1.787 3.217 4.11v4.734z" fill="#ADB8B6"></path></svg>
