<?xml version="1.0" encoding="UTF-8"?>
<svg width="24" height="24" fill="none" xmlns="http://www.w3.org/2000/svg"><path d="M13.467 11.522c0 3.556-2.904 6.44-6.486 6.44S.495 15.077.495 11.521c0-3.557 2.904-6.44 6.486-6.44s6.486 2.883 6.486 6.44zM20.582 11.522c0 3.348-1.452 6.062-3.243 6.062s-3.243-2.714-3.243-6.062c0-3.348 1.451-6.063 3.242-6.063s3.243 2.714 3.243 6.063M23.492 11.522c0 2.998-.51 5.43-1.14 5.43-.63 0-1.141-2.43-1.141-5.43 0-3 .51-5.431 1.14-5.431.63 0 1.14 2.431 1.14 5.43z" fill="#ADB8B6"></path></svg>
