<?xml version="1.0" encoding="UTF-8"?>
<svg width="24" height="24" fill="none" xmlns="http://www.w3.org/2000/svg"><path d="M23.524 4.249a9.68 9.68 0 01-2.772.755 4.81 4.81 0 002.121-2.653 9.713 9.713 0 01-3.065 1.164A4.832 4.832 0 0016.286 2c-2.665 0-4.826 2.148-4.826 4.797 0 .375.044.742.125 1.092-4.01-.2-7.566-2.11-9.947-5.012A4.785 4.785 0 003.132 9.28a4.839 4.839 0 01-2.187-.6v.06c0 2.325 1.663 4.264 3.872 4.704a4.856 4.856 0 01-2.18.082 4.828 4.828 0 004.509 3.332 9.717 9.717 0 01-5.994 2.054c-.39 0-.774-.023-1.152-.068A13.723 13.723 0 007.398 21c8.877 0 13.73-7.309 13.73-13.648 0-.207-.004-.414-.014-.62a9.787 9.787 0 002.41-2.483z" fill="#ADB8B6"></path></svg>
