<?xml version="1.0" encoding="UTF-8"?><svg width="168" height="57" viewBox="0 0 168 57" fill="none" xmlns="http://www.w3.org/2000/svg">
<path d="M1.29102 36.3169V36.2165C1.29102 25.9111 9.17161 17.1894 20.285 17.1894C25.8081 17.1894 29.4788 18.5017 32.8459 20.9273C33.2543 21.2325 33.5857 21.6288 33.8137 22.0848C34.0417 22.5408 34.16 23.0438 34.1591 23.5536C34.1593 23.9738 34.0767 24.3898 33.916 24.7781C33.7554 25.1663 33.5198 25.519 33.2227 25.8162C32.9257 26.1133 32.5729 26.349 32.1848 26.5097C31.7966 26.6705 31.3805 26.7532 30.9603 26.7531C30.1184 26.7531 29.4788 26.3823 28.9736 26.0123C26.616 24.2944 24.0229 23.1164 20.0494 23.1164C13.2463 23.1164 8.09402 29.0774 8.09402 36.1153V36.2166C8.09402 43.7936 13.078 49.3839 20.6218 49.3839C24.0901 49.3839 27.2556 48.2723 29.512 46.5884V39.6849H22.2386C20.655 39.6849 19.3418 38.4729 19.3418 36.8894C19.3418 35.3066 20.655 34.0607 22.2378 34.0607H32.5091C34.3615 34.0607 35.7759 35.4758 35.7759 37.3274V47.1608C35.7759 49.0131 35.0351 50.3264 33.5195 51.2695C30.354 53.3915 25.9425 55.2778 20.4194 55.2778C8.86884 55.2432 1.29102 47.0256 1.29102 36.3163M41.5345 19.109C41.5313 18.6924 41.6109 18.2792 41.7688 17.8937C41.9268 17.5082 42.1598 17.158 42.4544 16.8634C42.749 16.5688 43.0993 16.3356 43.4848 16.1777C43.8704 16.0198 44.2834 15.9402 44.7 15.9435C46.4852 15.9435 47.8996 17.3578 47.8996 19.109V51.7075C47.8996 53.4919 46.4844 54.873 44.7 54.873C44.2834 54.8763 43.8704 54.7966 43.4848 54.6387C43.0993 54.4807 42.749 54.2477 42.4544 53.9531C42.1598 53.6585 41.9268 53.3083 41.7688 52.9228C41.6109 52.5372 41.5313 52.1241 41.5345 51.7075V19.109ZM52.8495 40.8969V40.7965C52.8495 32.8487 59.1474 26.2812 67.6676 26.2812C76.1878 26.2812 82.4516 32.7482 82.4516 40.6953V40.7966C82.4516 48.6764 76.1538 55.2771 67.5664 55.2771C59.1133 55.2439 52.8495 48.7777 52.8495 40.897M76.0866 40.897V40.7966C76.0866 35.9131 72.5503 31.8384 67.5664 31.8384C62.4473 31.8384 59.2145 35.846 59.2145 40.6615V40.7627C59.2145 45.6122 62.7509 49.6538 67.6676 49.6538C72.8199 49.6869 76.0866 45.6794 76.0866 40.8971M98.3465 55.1428H98.0437C96.2925 55.1428 95.147 54.0312 94.407 52.3473L85.1452 31.1649C84.9767 30.6937 84.7752 30.1546 84.7752 29.5822C84.7752 27.9994 86.1896 26.5179 87.9407 26.5179C89.6919 26.5179 90.5671 27.5282 91.1063 28.8413L98.2453 47.2622L105.52 28.7402C105.991 27.6294 106.833 26.5179 108.517 26.5179C110.268 26.5179 111.615 27.831 111.615 29.5822C111.615 30.1546 111.413 30.7949 111.244 31.0977L101.983 52.3473C101.242 53.9972 100.098 55.1428 98.3465 55.1428M113.939 40.8971V40.7967C113.939 32.8489 120.236 26.2814 128.757 26.2814C137.276 26.2814 143.541 32.7485 143.541 40.6956V40.7968C143.541 48.6766 137.243 55.2774 128.655 55.2774C120.168 55.2442 113.939 48.7778 113.939 40.8972M137.176 40.8972V40.7968C137.176 35.9133 133.639 31.8386 128.655 31.8386C123.536 31.8386 120.304 35.8462 120.304 40.6617V40.763C120.304 45.6125 123.839 49.6539 128.79 49.6539C133.909 49.6871 137.176 45.6796 137.176 40.8973" fill="#00A082"/>
<path d="M154.18 1.05941C147.278 1.05941 141.688 6.64968 141.688 13.5532C141.688 16.1803 142.495 18.7054 144.044 20.8274L144.381 21.2985L150.881 30.4932C150.881 30.4932 151.689 31.8055 153.406 31.8055H154.989C156.707 31.8055 157.515 30.4932 157.515 30.4932L164.014 21.2985L164.351 20.8274C165.901 18.6722 166.709 16.1802 166.709 13.5539C166.675 6.64885 161.085 1.05859 154.18 1.05859M159.333 17.2571L158.996 17.7282L154.214 24.4972L149.399 17.7282L149.061 17.223C148.287 16.1123 147.849 14.8655 147.849 13.5191C147.848 12.6875 148.012 11.8638 148.329 11.0953C148.647 10.3267 149.114 9.62841 149.702 9.04033C150.29 8.45225 150.988 7.98596 151.757 7.66812C152.525 7.35029 153.349 7.18717 154.18 7.18811C155.012 7.18717 155.836 7.35029 156.604 7.66812C157.373 7.98595 158.071 8.45225 158.659 9.04033C159.247 9.62841 159.714 10.3267 160.031 11.0953C160.349 11.8638 160.512 12.6875 160.512 13.5191C160.514 14.857 160.102 16.1627 159.333 17.2571M150.678 37.4298C150.678 35.5442 152.16 33.9947 154.147 33.9947C156.168 33.9947 157.616 35.5102 157.616 37.3958V37.4299C157.616 39.2822 156.134 40.831 154.114 40.831C152.126 40.7979 150.679 39.2814 150.679 37.4299" fill="#FFCC1B"/>
</svg>
