<?xml version="1.0" encoding="UTF-8"?><svg width="159" height="41" viewBox="0 0 159 41" fill="none" xmlns="http://www.w3.org/2000/svg">
<g clip-path="url(#clip0_1838_10285)">
<path d="M58.3686 18.9942C58.3686 8.56882 45.4178 0.0644531 29.4451 0.0644531C13.4508 0.0644531 0.5 8.56882 0.5 18.9942C0.5 19.2533 0.5 20.0087 0.5 20.0951C0.5 31.1464 11.8104 40.1041 29.4235 40.1041C47.1445 40.1041 58.347 31.1464 58.347 20.0951V18.9942H58.3686Z" fill="#2D3277"/>
<path d="M57.2458 18.9733C57.2458 28.7943 44.7915 36.7591 29.4232 36.7591C14.0549 36.7591 1.62207 28.8159 1.62207 18.9733C1.62207 9.15225 14.0764 1.1875 29.4447 1.1875C44.8131 1.1875 57.2458 9.15225 57.2458 18.9733Z" fill="#FFD100"/>
<path d="M20.2073 13.3603C20.1857 13.3819 19.9051 13.6841 20.0994 13.8999C20.5311 14.4611 21.8909 14.7849 23.2723 14.4827C24.0926 14.31 25.1286 13.4682 26.1431 12.6696C27.2439 11.8062 28.3232 10.9212 29.424 10.5759C30.5896 10.2089 31.3234 10.36 31.8199 10.5111C32.3595 10.6622 32.9855 11.0292 33.9999 11.7846C35.8994 13.2092 43.562 19.9005 44.8786 21.0445C45.9363 20.5696 50.6849 18.519 57.1172 17.116C56.556 13.6841 54.4622 10.5543 51.3109 7.98571C46.9076 9.84199 41.5114 10.8133 36.2448 8.22314C36.2232 8.20155 33.374 6.8633 30.5464 6.92806C26.359 7.0144 24.5458 8.82751 22.6464 10.7485L20.2073 13.3603Z" fill="white"/>
<path d="M44.554 21.7779C44.4677 21.6915 35.5532 13.8994 33.5458 12.3885C32.3802 11.5035 31.7327 11.2877 31.042 11.2014C30.6966 11.1582 30.2002 11.2229 29.8548 11.3093C28.9267 11.5683 27.6964 12.3885 26.5955 13.2519C25.4731 14.1585 24.3939 15.0003 23.4226 15.2161C22.1707 15.4967 20.6166 15.1729 19.9259 14.6981C19.6453 14.5038 19.451 14.288 19.3431 14.0505C19.0841 13.4462 19.5589 12.9713 19.6453 12.885L22.0843 10.23C22.3649 9.94944 22.6671 9.66884 22.9477 9.38824C22.1491 9.49616 21.4152 9.69042 20.7029 9.88468C19.8179 10.1437 18.9546 10.3811 18.0912 10.3811C17.7242 10.3811 15.7816 10.0574 15.4147 9.97102C13.213 9.34507 11.2488 8.7407 8.33489 7.38086C4.83816 9.99261 2.50702 13.2519 1.83789 16.835C2.33434 16.9645 3.15456 17.2019 3.49991 17.2882C11.3999 19.0366 13.8606 20.8497 14.2923 21.2167C14.7671 20.677 15.4794 20.3317 16.2565 20.3317C17.1414 20.3317 17.9185 20.7634 18.3934 21.4541C18.8466 21.0871 19.4726 20.785 20.2712 20.785C20.6382 20.785 21.0267 20.8497 21.3936 20.9792C22.2786 21.2814 22.7535 21.8858 22.9909 22.4254C23.2931 22.2959 23.66 22.188 24.0917 22.188C24.5234 22.188 24.9551 22.2959 25.4084 22.4686C26.8761 23.0945 27.092 24.5191 26.9625 25.5983C27.0704 25.5768 27.1783 25.5768 27.2863 25.5768C29.013 25.5768 30.416 26.9798 30.416 28.7065C30.416 29.2462 30.2865 29.7426 30.0491 30.1959C30.524 30.4549 31.7111 31.0593 32.7688 30.9298C33.6106 30.8218 33.9343 30.5412 34.0423 30.3686C34.1286 30.2606 34.1934 30.1311 34.1286 30.0232L31.9054 27.541C31.9054 27.541 31.5384 27.1956 31.6679 27.0661C31.7975 26.9366 32.0133 27.1309 32.186 27.2604C33.33 28.2101 34.7114 29.6347 34.7114 29.6347C34.733 29.6563 34.8193 29.8289 35.3373 29.9153C35.769 30.0016 36.5677 29.9585 37.1073 29.5052C37.2368 29.3973 37.3879 29.2462 37.4958 29.1167L37.4742 29.1382C38.0354 28.4044 37.4095 27.6705 37.4095 27.6705L34.7977 24.735C34.7977 24.735 34.4308 24.3896 34.5603 24.2601C34.6682 24.1306 34.9057 24.3248 35.0783 24.4544C35.8985 25.1451 37.0641 26.3106 38.1865 27.4115C38.4024 27.5626 39.3953 28.1885 40.6904 27.3251C41.489 26.8071 41.6401 26.1811 41.6185 25.6847C41.5537 25.0587 41.0789 24.6054 41.0789 24.6054L37.5174 21.0224C37.5174 21.0224 37.1505 20.6986 37.28 20.5475C37.3879 20.418 37.6253 20.6123 37.798 20.7418C38.942 21.6915 42.007 24.4975 42.007 24.4975C42.0502 24.5191 43.1078 25.2746 44.4245 24.4544C44.8994 24.1522 45.2016 23.6989 45.2231 23.1809C45.2016 22.3175 44.554 21.7779 44.554 21.7779Z" fill="white"/>
<path d="M27.2869 26.3115C26.7257 26.3115 26.1213 26.6353 26.0565 26.5921C26.0134 26.5705 26.0997 26.3331 26.1429 26.2036C26.186 26.0741 26.9199 23.894 25.15 23.1385C23.7901 22.5558 22.9699 23.2033 22.6893 23.5055C22.6246 23.5918 22.5814 23.5702 22.5814 23.4839C22.5598 23.0954 22.3871 22.0161 21.2 21.6708C19.538 21.1527 18.4587 22.3183 18.1781 22.75C18.0486 21.8003 17.25 21.0664 16.2571 21.0664C15.1778 21.0664 14.3145 21.9298 14.3145 23.009C14.3145 24.0883 15.1778 24.9517 16.2571 24.9517C16.7751 24.9517 17.25 24.7358 17.5953 24.412C17.6169 24.412 17.6169 24.4336 17.5953 24.4768C17.509 24.9517 17.3579 26.7 19.1926 27.4123C19.9265 27.6929 20.5524 27.4771 21.0705 27.1317C21.2216 27.0238 21.2431 27.067 21.2216 27.218C21.1568 27.6713 21.2431 28.621 22.5814 29.1823C23.5959 29.5924 24.2218 29.1823 24.6104 28.8153C24.783 28.6642 24.8262 28.6858 24.8478 28.9232C24.891 30.2183 25.9702 31.2544 27.2869 31.2544C28.6467 31.2544 29.7259 30.1751 29.7259 28.8153C29.7475 27.4123 28.6467 26.3331 27.2869 26.3115Z" fill="white"/>
<path d="M44.9002 20.8503C42.1589 18.4544 35.813 12.9503 34.0862 11.6552C33.1149 10.9213 32.4458 10.5328 31.8414 10.3601C31.5824 10.2738 31.2155 10.1874 30.7406 10.1874C30.3089 10.1874 29.8341 10.2738 29.3376 10.4249C28.2368 10.7702 27.1144 11.6552 26.0567 12.497L25.992 12.5402C24.9991 13.3388 23.963 14.159 23.186 14.3317C22.8406 14.418 22.4953 14.4396 22.1499 14.4396C21.2865 14.4396 20.4879 14.1806 20.2073 13.8137C20.1641 13.7489 20.1857 13.641 20.2936 13.5115L20.3152 13.4899L22.7327 10.8781C24.6321 8.97869 26.4021 7.20874 30.5248 7.10082C30.5895 7.10082 30.6543 7.10082 30.7406 7.10082C33.3092 7.10082 35.8562 8.24481 36.1368 8.37432C38.5327 9.53989 41.0149 10.1443 43.4972 10.1443C46.0873 10.1443 48.7638 9.49672 51.5914 8.20164C51.2677 7.94262 50.9439 7.68361 50.6201 7.42459C48.1379 8.50382 45.7851 9.04344 43.5188 9.04344C41.1876 9.04344 38.878 8.48224 36.6332 7.38142C36.5253 7.31667 33.6977 6 30.7406 6C30.6543 6 30.5895 6 30.5032 6C27.0496 6.08634 25.107 7.31667 23.7903 8.37432C22.5168 8.3959 21.416 8.71967 20.4447 8.97869C19.5813 9.21612 18.8259 9.43197 18.092 9.43197C17.7898 9.43197 17.2502 9.41038 17.207 9.41038C16.3652 9.3888 12.113 8.33115 8.72421 7.05765C8.37886 7.29508 8.05509 7.5541 7.73132 7.81312C11.2712 9.25929 15.5666 10.3817 16.9264 10.468C17.2933 10.4896 17.7034 10.5328 18.1136 10.5328C19.0201 10.5328 19.9051 10.2738 20.7685 10.0363C21.2865 9.88525 21.8477 9.73415 22.4305 9.62623C22.2794 9.77732 22.1067 9.95 21.9556 10.1011L19.5166 12.756C19.3223 12.9503 18.9122 13.4683 19.1712 14.1158C19.2791 14.3749 19.495 14.6123 19.8187 14.8281C20.4015 15.2167 21.4592 15.4973 22.4305 15.4973C22.7974 15.4973 23.1428 15.4541 23.4666 15.3893C24.5026 15.1519 25.5819 14.3101 26.7259 13.382C27.6324 12.6697 28.9275 11.7415 29.9204 11.4609C30.201 11.3962 30.5463 11.3314 30.8054 11.3314C30.8917 11.3314 30.9565 11.3314 31.0428 11.353C31.6903 11.4393 32.3379 11.6552 33.4603 12.497C35.4677 14.0079 44.3821 21.8 44.4685 21.8863C44.4685 21.8863 45.0513 22.3828 45.0081 23.203C44.9865 23.6563 44.7275 24.0664 44.2958 24.347C43.9073 24.5844 43.5188 24.7139 43.1302 24.7139C42.5259 24.7139 42.1157 24.4333 42.0942 24.4117C42.051 24.3902 39.0075 21.5842 37.8851 20.656C37.7125 20.5049 37.5398 20.3754 37.3671 20.3754C37.2808 20.3754 37.1944 20.4186 37.1297 20.4833C36.957 20.6992 37.1513 21.0014 37.3887 21.1956L40.9502 24.7787C40.9502 24.7787 41.4034 25.1888 41.4466 25.75C41.4682 26.3544 41.1876 26.8508 40.6048 27.2178C40.1947 27.4984 39.763 27.6279 39.3313 27.6279C38.7917 27.6279 38.4032 27.3689 38.3168 27.3257L37.7988 26.8292C36.8707 25.9011 35.8994 24.9514 35.1871 24.3686C35.0144 24.2175 34.8201 24.088 34.6474 24.088C34.5611 24.088 34.4748 24.1096 34.4316 24.1743C34.3453 24.2607 34.3021 24.4333 34.4963 24.6923C34.5827 24.8003 34.669 24.8866 34.669 24.8866L37.2808 27.8005C37.3024 27.8221 37.8204 28.4481 37.3455 29.0525L37.2592 29.1604C37.1728 29.2467 37.0865 29.3331 37.0218 29.3978C36.5685 29.7648 35.9857 29.8079 35.7483 29.8079C35.6188 29.8079 35.5108 29.7863 35.4029 29.7863C35.1439 29.7432 34.9712 29.6784 34.8849 29.5705L34.8633 29.5273C34.7122 29.3762 33.4171 28.038 32.3163 27.1314C32.1652 27.0019 31.9925 26.8508 31.8198 26.8508C31.7335 26.8508 31.6472 26.894 31.5824 26.9587C31.3666 27.1962 31.6903 27.5415 31.8198 27.671L34.0431 30.1101C34.0431 30.1317 34.0215 30.1749 33.9567 30.2612C33.8704 30.3691 33.6114 30.6497 32.8127 30.7361C32.7264 30.7577 32.6185 30.7577 32.5106 30.7577C31.6903 30.7577 30.8054 30.3475 30.3305 30.1101C30.5463 29.6784 30.6543 29.182 30.6543 28.7071C30.6543 26.8724 29.1649 25.4046 27.3518 25.3831C27.3086 25.3831 27.2655 25.3831 27.2223 25.3831C27.2871 24.5413 27.1575 22.9656 25.5387 22.2749C25.0638 22.0806 24.6106 21.9727 24.1573 21.9727C23.8119 21.9727 23.4666 22.0374 23.1428 22.1454C22.7974 21.4978 22.2578 21.023 21.5239 20.7639C21.1138 20.6344 20.7253 20.5481 20.3368 20.5481C19.6677 20.5481 19.0417 20.7423 18.4805 21.1309C17.9193 20.5697 17.1207 20.1596 16.2573 20.1596C15.5234 20.1596 14.8111 20.4617 14.2715 20.9798C13.6024 20.4617 10.8611 18.7134 3.5223 17.0514C3.17694 16.965 2.35673 16.7276 1.86028 16.5981C1.77394 16.9866 1.70919 17.3967 1.66602 17.8068C1.66602 17.8068 3.02585 18.1306 3.28487 18.1954C10.7748 19.8574 13.257 21.5842 13.6671 21.9079C13.516 22.2533 13.4513 22.6202 13.4513 22.9872C13.4513 24.5413 14.7032 25.7932 16.2573 25.7932C16.43 25.7932 16.6026 25.7716 16.7753 25.75C17.0127 26.894 17.7466 27.7574 18.8906 28.1891C19.2144 28.3186 19.5597 28.3833 19.8835 28.3833C20.0993 28.3833 20.3152 28.3617 20.531 28.297C20.7469 28.8366 21.2218 29.5057 22.2794 29.9374C22.6463 30.0885 23.0133 30.1749 23.3802 30.1749C23.6824 30.1749 23.963 30.1317 24.2436 30.0238C24.7401 31.2541 25.9488 32.0743 27.3086 32.0743C28.1936 32.0743 29.057 31.7074 29.683 31.0598C30.2226 31.362 31.345 31.9016 32.489 31.9016C32.6401 31.9016 32.7696 31.8801 32.9207 31.8801C34.0431 31.729 34.5827 31.2973 34.8201 30.9519C34.8633 30.8872 34.9065 30.8224 34.928 30.7577C35.1871 30.844 35.4892 30.8872 35.8346 30.9087C36.4606 30.9087 37.0433 30.6929 37.6477 30.2612C38.2305 29.8295 38.6622 29.2251 38.7054 28.7071V28.6855C38.8996 28.7287 39.1155 28.7503 39.3097 28.7503C39.9357 28.7503 40.5832 28.556 41.166 28.1675C42.31 27.412 42.5259 26.4191 42.5043 25.7716C42.6985 25.8148 42.9144 25.8363 43.1086 25.8363C43.713 25.8363 44.2958 25.6637 44.857 25.2967C45.5693 24.8434 46.001 24.1311 46.0657 23.3325C46.1089 22.7713 45.9794 22.2101 45.6772 21.7352C47.6198 20.8934 52.0231 19.2962 57.225 18.109C57.2034 17.6989 57.1387 17.3104 57.0739 16.9003C50.7712 18.2817 46.0873 20.3107 44.9002 20.8503ZM27.2871 31.0167C26.0567 31.0167 25.0638 30.0669 25.0207 28.8582C25.0207 28.7503 24.9991 28.4697 24.7832 28.4697C24.6969 28.4697 24.6106 28.5344 24.5026 28.6208C24.2436 28.8798 23.8983 29.1172 23.4018 29.1172C23.1644 29.1172 22.9269 29.074 22.6679 28.9661C21.3728 28.4481 21.3513 27.5631 21.416 27.1962C21.4376 27.1098 21.4376 27.0019 21.3728 26.9156L21.2865 26.8508H21.2002C21.1354 26.8508 21.0707 26.8724 20.9843 26.9372C20.6174 27.1962 20.2504 27.3257 19.8835 27.3257C19.6892 27.3257 19.4734 27.2825 19.2791 27.1962C17.5739 26.527 17.7034 24.9298 17.7898 24.4549C17.8114 24.347 17.7682 24.2822 17.725 24.2391L17.5955 24.1311L17.4876 24.2391C17.1638 24.5628 16.7321 24.7355 16.2573 24.7355C15.286 24.7355 14.4873 23.9369 14.4873 22.9656C14.4873 21.9943 15.286 21.1956 16.2573 21.1956C17.1422 21.1956 17.8761 21.8648 18.0056 22.7281L18.0704 23.203L18.3294 22.7929C18.351 22.7497 19.0633 21.6705 20.3799 21.6705C20.639 21.6705 20.898 21.7137 21.157 21.8C22.1931 22.1238 22.3873 23.0735 22.4089 23.462C22.4305 23.6995 22.5816 23.6995 22.6248 23.6995C22.7111 23.6995 22.7759 23.6347 22.819 23.5915C23.0133 23.3757 23.445 23.0519 24.1141 23.0519C24.4163 23.0519 24.7401 23.1167 25.0854 23.2678C26.7474 23.9801 25.992 26.0954 25.992 26.1169C25.8409 26.4623 25.8409 26.6134 25.9704 26.7213L26.0351 26.7429H26.0783C26.1431 26.7429 26.251 26.6997 26.4021 26.6566C26.6179 26.5702 26.9633 26.4623 27.2871 26.4623C28.539 26.4839 29.5535 27.4984 29.5535 28.7287C29.575 30.0022 28.539 31.0167 27.2871 31.0167Z" fill="#2D3277"/>
<path d="M156.925 6.92905C155.888 5.61238 154.291 4.96484 152.176 4.96484C150.061 4.96484 148.463 5.61238 147.427 6.92905C146.391 8.24572 145.852 9.77823 145.852 11.5698C145.852 13.3829 146.37 14.937 147.427 16.2321C148.463 17.5271 150.061 18.1747 152.176 18.1747C154.313 18.1747 155.888 17.5271 156.925 16.2321C157.961 14.937 158.5 13.3829 158.5 11.5698C158.5 9.77823 157.982 8.24572 156.925 6.92905ZM154.356 14.4405C153.859 15.1097 153.126 15.455 152.176 15.455C151.226 15.455 150.492 15.1097 149.996 14.4405C149.478 13.7714 149.24 12.8217 149.24 11.5698C149.24 10.3394 149.499 9.36812 149.996 8.699C150.514 8.02987 151.226 7.7061 152.176 7.7061C153.126 7.7061 153.838 8.02987 154.356 8.699C154.852 9.36812 155.111 10.3178 155.111 11.5698C155.111 12.8001 154.852 13.7714 154.356 14.4405Z" fill="#2D3277"/>
<path d="M130.246 5.82793C129.188 5.28831 127.979 5.0293 126.619 5.0293C124.526 5.0293 123.036 5.56891 122.173 6.66973C121.633 7.36044 121.331 8.267 121.266 9.34624H124.396C124.483 8.87137 124.634 8.48285 124.85 8.20225C125.173 7.81372 125.713 7.64105 126.49 7.64105C127.181 7.64105 127.699 7.72738 128.066 7.92165C128.433 8.11591 128.605 8.46126 128.605 8.9793C128.605 9.38941 128.368 9.71318 127.915 9.90744C127.656 10.0154 127.224 10.1233 126.619 10.188L125.519 10.3175C124.267 10.4686 123.295 10.7492 122.648 11.1162C121.461 11.8069 120.878 12.9077 120.878 14.4186C120.878 15.5842 121.245 16.5124 121.979 17.1383C122.713 17.7859 123.641 18.0449 124.785 18.1096C131.865 18.4334 131.778 14.3755 131.843 13.5337V8.89296C131.843 7.40361 131.303 6.36755 130.246 5.82793ZM128.605 12.9077C128.584 13.9869 128.281 14.7424 127.677 15.1525C127.073 15.5626 126.425 15.7785 125.713 15.7785C125.26 15.7785 124.893 15.649 124.569 15.4115C124.267 15.1741 124.094 14.764 124.094 14.2028C124.094 13.5768 124.353 13.1236 124.85 12.8214C125.152 12.6487 125.648 12.4976 126.339 12.3897L127.073 12.2602C127.44 12.1954 127.72 12.1091 127.936 12.0443C128.152 11.958 128.368 11.8716 128.562 11.7421V12.9077H128.605Z" fill="#2D3277"/>
<path d="M114.1 7.81342C114.921 7.81342 115.503 8.07244 115.892 8.56889C116.151 8.93583 116.324 9.34594 116.388 9.8208H119.864C119.669 8.05085 119.065 6.82053 118.007 6.12982C116.971 5.43911 115.633 5.09375 113.993 5.09375C112.072 5.09375 110.561 5.67654 109.46 6.8637C108.359 8.05085 107.819 9.69129 107.819 11.8282C107.819 13.706 108.316 15.2386 109.309 16.4257C110.302 17.6129 111.834 18.1957 113.949 18.1957C116.043 18.1957 117.64 17.4834 118.698 16.0804C119.367 15.1954 119.734 14.2672 119.82 13.2959H116.345C116.281 13.9435 116.065 14.4831 115.741 14.8932C115.396 15.3033 114.834 15.4976 114.036 15.4976C112.913 15.4976 112.136 14.9795 111.726 13.9435C111.51 13.4039 111.381 12.67 111.381 11.7634C111.381 10.8137 111.489 10.0582 111.726 9.47544C112.158 8.35304 112.956 7.81342 114.1 7.81342Z" fill="#2D3277"/>
<path d="M106.891 5.07227C99.7032 5.07227 100.135 11.4182 100.135 11.4182V17.872H103.394V11.8283C103.394 10.8354 103.524 10.1015 103.761 9.62664C104.214 8.78483 105.078 8.35314 106.394 8.35314C106.502 8.35314 106.632 8.35314 106.783 8.37472C106.934 8.37472 107.128 8.39631 107.323 8.41789V5.09385C107.171 5.09385 107.085 5.07227 107.042 5.07227C106.999 5.07227 106.956 5.07227 106.891 5.07227Z" fill="#2D3277"/>
<path d="M94.9335 14.5049C94.804 14.6991 94.6529 14.8718 94.4802 15.0013C94.0269 15.3899 93.401 15.4978 92.6671 15.4978C91.9764 15.4978 91.4368 15.3899 90.9403 15.0877C90.1201 14.5912 89.6668 13.7494 89.6236 12.4975H98.6245C98.6461 11.4399 98.6029 10.6196 98.5165 10.0368C98.3655 9.06554 98.0417 8.22373 97.5236 7.46827C96.9624 6.62646 96.2501 6.02209 95.3868 5.63357C94.5234 5.24504 93.5521 5.05078 92.4728 5.05078C90.6597 5.05078 89.192 5.61198 88.048 6.75597C86.904 7.89996 86.3428 9.5404 86.3428 11.6773C86.3428 13.9653 86.9687 15.6057 88.2422 16.6418C89.4941 17.6562 90.9619 18.1743 92.6023 18.1743C94.5881 18.1743 96.1422 17.5699 97.2646 16.3612C97.869 15.7352 98.2359 15.1093 98.387 14.4833H94.9335V14.5049ZM90.5518 8.43958C91.0051 7.96472 91.6526 7.72728 92.4728 7.72728C93.2283 7.72728 93.8758 7.94313 94.3939 8.39641C94.9119 8.84969 95.1925 9.49723 95.2573 10.3606H89.6884C89.8179 9.56198 90.0985 8.91444 90.5518 8.43958Z" fill="#2D3277"/>
<path d="M85.0475 17.8722H82.0688V10.3823C82.0688 9.69159 81.853 8.07274 79.8888 8.07274C78.5721 8.07274 77.644 9.02247 77.644 10.3823V17.8722H74.6653V10.3823C74.6653 9.69159 74.471 8.07274 72.5068 8.07274C71.1686 8.07274 70.2404 9.02247 70.2404 10.3823V17.8722H67.2617V10.4686C67.2617 7.38203 69.3123 5.0293 72.4852 5.0293C74.0609 5.0293 75.356 5.69842 76.1762 6.75607C77.0612 5.69842 78.3563 5.0293 79.8672 5.0293C83.1049 5.0293 85.0259 7.27411 85.0259 10.4686V17.8722H85.0475Z" fill="#2D3277"/>
<path d="M144.88 1.1653C144.88 1.1653 141.6 0.819947 141.6 3.45328V6.95C141.233 6.36722 140.758 5.91394 140.175 5.59017C139.592 5.2664 138.923 5.09372 138.168 5.09372C136.549 5.09372 135.254 5.69809 134.261 6.90683C133.289 8.11558 132.793 9.86394 132.793 11.9792C132.793 13.8139 133.289 15.3033 134.282 16.4904C135.275 17.656 137.196 18.174 138.923 18.174C144.924 18.174 144.859 13.0369 144.859 13.0369L144.88 1.1653ZM140.974 14.4615C140.499 15.1522 139.808 15.476 138.88 15.476C137.973 15.476 137.283 15.1306 136.829 14.4399C136.376 13.7492 136.16 12.7563 136.16 11.6123C136.16 10.5546 136.376 9.66968 136.829 8.95738C137.261 8.24508 137.973 7.87814 138.901 7.87814C139.527 7.87814 140.067 8.07241 140.542 8.46093C141.297 9.10847 141.686 10.274 141.686 11.785C141.707 12.9074 141.448 13.7708 140.974 14.4615Z" fill="#2D3277"/>
<path d="M107.56 33.4342C107.43 33.6284 107.279 33.8011 107.128 33.9306C106.675 34.2976 106.027 34.4486 105.294 34.4486C104.603 34.4486 104.063 34.3407 103.567 34.0385C102.768 33.5421 102.336 32.6787 102.293 31.4484H111.229C111.251 30.3907 111.208 29.5705 111.121 29.0093C110.97 28.038 110.647 27.1962 110.15 26.4623C109.589 25.6421 108.877 25.0377 108.035 24.6492C107.171 24.2607 106.222 24.0664 105.142 24.0664C103.351 24.0664 101.883 24.6276 100.761 25.7716C99.6383 26.9156 99.0771 28.5344 99.0771 30.6497C99.0771 32.9161 99.7031 34.5566 100.955 35.5495C102.207 36.5639 103.653 37.0604 105.272 37.0604C107.258 37.0604 108.79 36.456 109.891 35.2689C110.474 34.6429 110.862 34.017 111.013 33.4126H107.56V33.4342ZM103.221 27.4336C103.675 26.9588 104.322 26.7429 105.142 26.7429C105.898 26.7429 106.524 26.9588 107.042 27.412C107.56 27.8437 107.841 28.4913 107.905 29.3547H102.38C102.488 28.5344 102.768 27.9085 103.221 27.4336Z" fill="#2D3277"/>
<path d="M85.1767 24.1091C84.4213 24.1091 83.7521 24.2818 83.1694 24.6056C82.5866 24.9294 82.1117 25.3826 81.7448 25.9654V20.116C81.7448 20.116 78.4639 19.7922 78.4639 22.4471V31.9444C78.4639 31.9444 78.3991 37.0815 84.3997 37.0815C86.1265 37.0815 88.0475 36.5635 89.0404 35.3979C90.0333 34.2324 90.5297 32.7214 90.5297 30.8867C90.5297 28.7714 90.0333 27.1094 89.062 25.9007C88.1123 24.7135 86.8172 24.1091 85.1767 24.1091ZM86.515 33.4121C86.0617 34.1028 85.3926 34.4482 84.4644 34.4482C83.5579 34.4482 82.8456 34.1029 82.3707 33.4337C81.8959 32.743 81.6584 31.8796 81.6584 30.7788C81.6584 29.2679 82.047 28.1886 82.8024 27.5411C83.2773 27.1526 83.8169 26.9583 84.4429 26.9583C85.3926 26.9583 86.0833 27.3253 86.5366 28.0375C86.9899 28.7498 87.2057 29.6348 87.2057 30.6925C87.2057 31.8149 86.9683 32.7214 86.515 33.4121Z" fill="#2D3277"/>
<path d="M98.4296 24.1094C98.3865 24.1094 98.3433 24.1094 98.2786 24.1094C91.0908 24.1094 91.5225 30.4553 91.5225 30.4553V36.8012H94.7818V30.8438C94.7818 29.8509 94.9113 29.117 95.1488 28.6422C95.602 27.8004 96.4654 27.3687 97.7605 27.3687C97.8684 27.3687 97.9979 27.3687 98.149 27.3902C98.3001 27.3902 98.4944 27.4118 98.6887 27.4334V24.131C98.5807 24.1094 98.4728 24.1094 98.4296 24.1094Z" fill="#2D3277"/>
<path d="M67.2617 22.4476V36.7798H70.3267V20.1164C70.3052 20.1164 67.2617 19.9869 67.2617 22.4476Z" fill="#2D3277"/>
<path d="M76.0895 20.0957H72.8086V23.3334H76.0895V20.0957Z" fill="#2D3277"/>
<path d="M76.0895 24.4336H72.8086V36.8016H76.0895V24.4336Z" fill="#2D3277"/>
</g>
<defs>
<clipPath id="clip0_1838_10285">
<rect width="158" height="40.0396" fill="white" transform="translate(0.5 0.0644531)"/>
</clipPath>
</defs>
</svg>
