<?xml version="1.0" encoding="UTF-8"?><svg width="56" height="56" viewBox="0 0 56 56" fill="none" xmlns="http://www.w3.org/2000/svg">
<rect width="56" height="56" rx="28" fill="#D9E8E5"/>
<g clip-path="url(#clip0_403_3166)">
<path d="M28 21.9C29.16 21.9 30.1 22.84 30.1 24C30.1 25.16 29.16 26.1 28 26.1C26.84 26.1 25.9 25.16 25.9 24C25.9 22.84 26.84 21.9 28 21.9ZM28 30.9C30.97 30.9 34.1 32.36 34.1 33V34.1H21.9V33C21.9 32.36 25.03 30.9 28 30.9ZM28 20C25.79 20 24 21.79 24 24C24 26.21 25.79 28 28 28C30.21 28 32 26.21 32 24C32 21.79 30.21 20 28 20ZM28 29C25.33 29 20 30.34 20 33V36H36V33C36 30.34 30.67 29 28 29Z" fill="black"/>
</g>
<defs>
<clipPath id="clip0_403_3166">
<rect width="24" height="24" fill="white" transform="translate(16 16)"/>
</clipPath>
</defs>
</svg>
