<?xml version="1.0" encoding="UTF-8"?><svg width="56" height="56" viewBox="0 0 56 56" fill="none" xmlns="http://www.w3.org/2000/svg">
<rect width="56" height="56" rx="28" fill="#D9E8E5"/>
<g clip-path="url(#clip0_403_3181)">
<path d="M38.9091 30.5616V23.7891C38.9091 22.5597 37.9272 21.5539 36.7273 21.5539H29.8655L28.7091 20.3693L30.2473 18.7935L29.4727 18L25.6218 21.9451L26.3964 22.7385L27.9346 21.1628L29.0909 22.3474V24.9066C29.0909 26.136 28.1091 27.1418 26.9091 27.1418H24.6836C24.4436 26.963 24.1927 26.8065 23.9309 26.6613L23.4945 27.6559L22.9927 27.4212L23.4291 26.4154C22.8291 26.1695 22.1527 26.0242 21.4545 26.0242C20.8764 26.0242 20.32 26.1472 19.7964 26.3148L20.1673 27.3318L19.6545 27.533L19.2727 26.4936C18.1164 27.0077 17.1891 27.9241 16.6218 29.0752L17.5927 29.5222L17.3636 30.0363L16.3818 29.5893C16.1418 30.204 16 30.8968 16 31.6121C16 32.2044 16.12 32.7744 16.2836 33.3108L17.2764 32.9309L17.4727 33.4561L16.4582 33.8473C16.96 35.0319 17.8545 35.9819 18.9782 36.563L19.4145 35.5684L19.9164 35.803L19.48 36.8089C20.08 37.0548 20.7564 37.2 21.4545 37.2C22.0327 37.2 22.5891 37.0771 23.1127 36.9094L22.7418 35.8924L23.2546 35.6913L23.6364 36.7306C24.7927 36.2166 25.72 35.3001 26.2873 34.149L25.3164 33.702L25.5455 33.1879L26.5273 33.635C26.6363 33.3443 26.7237 33.0315 26.7891 32.7185H32.4182C32.3963 32.9085 32.3636 33.0985 32.3636 33.2885C32.3636 35.4454 34.0764 37.2 36.1818 37.2C38.2873 37.2 40 35.4454 40 33.2885C40 32.2268 39.5855 31.2656 38.9091 30.5616ZM21.4545 34.9649C19.6436 34.9649 18.1818 33.4673 18.1818 31.6121C18.1818 29.7569 19.6436 28.2594 21.4545 28.2594C23.2654 28.2594 24.7273 29.7569 24.7273 31.6121C24.7273 33.4673 23.2654 34.9649 21.4545 34.9649ZM26.7672 30.4945C26.7237 30.2934 26.68 30.1034 26.6255 29.9134L25.6327 30.2934L25.4364 29.7681L26.4509 29.377H26.9091C29.32 29.377 31.2727 27.3765 31.2727 24.9066V23.7891H36.7273V29.4328C36.5527 29.4105 36.3673 29.377 36.1818 29.377C35.1454 29.377 34.2073 29.8016 33.52 30.4945H26.7672ZM36.1818 34.9649C35.2763 34.9649 34.5455 34.2161 34.5455 33.2885C34.5455 32.3609 35.2763 31.6121 36.1818 31.6121C37.0873 31.6121 37.8182 32.3609 37.8182 33.2885C37.8182 34.2161 37.0873 34.9649 36.1818 34.9649Z" fill="black"/>
</g>
<defs>
<clipPath id="clip0_403_3181">
<rect width="24" height="24" fill="white" transform="translate(16 16)"/>
</clipPath>
</defs>
</svg>
