<?xml version="1.0" encoding="utf-8"?>
<svg width="38" height="30" viewBox="0 0 38 30" fill="none" xmlns="http://www.w3.org/2000/svg">
<path d="M35.6667 19.4333V9.33335C35.6667 7.50001 34.1667 6.00001 32.3334 6.00001H21.8501L20.0834 4.23335L22.4334 1.88335L21.2501 0.700012L15.3667 6.58334L16.5501 7.76668L18.9001 5.41668L20.6667 7.18335V11C20.6667 12.8333 19.1667 14.3333 17.3334 14.3333H13.9334C13.5667 14.0667 13.1834 13.8333 12.7834 13.6167L12.1167 15.1L11.3501 14.75L12.0167 13.25C11.1001 12.8833 10.0667 12.6667 9.00008 12.6667C8.11675 12.6667 7.26675 12.85 6.46675 13.1L7.03341 14.6167L6.25008 14.9167L5.66675 13.3667C3.90008 14.1333 2.48341 15.5 1.61675 17.2167L3.10008 17.8833L2.75008 18.65L1.25008 17.9833C0.883415 18.9 0.666748 19.9333 0.666748 21C0.666748 21.8833 0.850081 22.7333 1.10008 23.5333L2.61675 22.9667L2.91675 23.75L1.36675 24.3333C2.13341 26.1 3.50008 27.5167 5.21675 28.3833L5.88341 26.9L6.65008 27.25L5.98341 28.75C6.90008 29.1167 7.93341 29.3333 9.00008 29.3333C9.88341 29.3333 10.7334 29.15 11.5334 28.9L10.9667 27.3833L11.7501 27.0833L12.3334 28.6333C14.1001 27.8667 15.5167 26.5 16.3834 24.7833L14.9001 24.1167L15.2501 23.35L16.7501 24.0167C16.9167 23.5833 17.0501 23.1167 17.1501 22.65H25.7501C25.7167 22.9333 25.6667 23.2167 25.6667 23.5C25.6667 26.7167 28.2834 29.3333 31.5001 29.3333C34.7167 29.3333 37.3334 26.7167 37.3334 23.5C37.3334 21.9167 36.7001 20.4833 35.6667 19.4333ZM9.00008 26C6.23341 26 4.00008 23.7667 4.00008 21C4.00008 18.2333 6.23341 16 9.00008 16C11.7667 16 14.0001 18.2333 14.0001 21C14.0001 23.7667 11.7667 26 9.00008 26ZM17.1167 19.3333C17.0501 19.0333 16.9834 18.75 16.9001 18.4667L15.3834 19.0333L15.0834 18.25L16.6334 17.6667H17.3334C21.0167 17.6667 24.0001 14.6833 24.0001 11V9.33335H32.3334V17.75C32.0667 17.7167 31.7834 17.6667 31.5001 17.6667C29.9167 17.6667 28.4834 18.3 27.4334 19.3333H17.1167ZM31.5001 26C30.1167 26 29.0001 24.8833 29.0001 23.5C29.0001 22.1167 30.1167 21 31.5001 21C32.8834 21 34.0001 22.1167 34.0001 23.5C34.0001 24.8833 32.8834 26 31.5001 26Z" fill="url(#paint0_linear_2032_4338)"/>
<defs>
<linearGradient id="paint0_linear_2032_4338" x1="0.666748" y1="29.3333" x2="40.7484" y2="23.2684" gradientUnits="userSpaceOnUse">
<stop stop-color="#4DBC5D"/>
<stop offset="1" stop-color="#08AABF"/>
</linearGradient>
</defs>
</svg>
