<?xml version="1.0" encoding="utf-8"?>
<svg width="28" height="28" viewBox="0 0 28 28" fill="none" xmlns="http://www.w3.org/2000/svg">
<path d="M14 15.6667C9.54996 15.6667 0.666626 17.9 0.666626 22.3334V27.3334H27.3333V22.3334C27.3333 17.9 18.45 15.6667 14 15.6667ZM24.1666 24.1667H3.83329V22.3334C3.83329 21.2667 9.04996 18.8334 14 18.8334C18.95 18.8334 24.1666 21.2667 24.1666 22.3334V24.1667ZM14 14C17.6833 14 20.6666 11.0167 20.6666 7.33335C20.6666 3.65002 17.6833 0.666687 14 0.666687C10.3166 0.666687 7.33329 3.65002 7.33329 7.33335C7.33329 11.0167 10.3166 14 14 14ZM14 3.83335C15.9333 3.83335 17.5 5.40002 17.5 7.33335C17.5 9.26669 15.9333 10.8334 14 10.8334C12.0666 10.8334 10.5 9.26669 10.5 7.33335C10.5 5.40002 12.0666 3.83335 14 3.83335Z" fill="url(#paint0_linear_2032_4327)"/>
<defs>
<linearGradient id="paint0_linear_2032_4327" x1="0.666626" y1="27.3334" x2="30.0737" y2="23.8585" gradientUnits="userSpaceOnUse">
<stop stop-color="#4DBC5D"/>
<stop offset="1" stop-color="#08AABF"/>
</linearGradient>
</defs>
</svg>
