<?xml version="1.0" encoding="utf-8"?>
<!-- Generator: Adobe Illustrator 23.0.1, SVG Export Plug-In . SVG Version: 6.00 Build 0)  -->
<svg version="1.1" id="Layer_1" xmlns="http://www.w3.org/2000/svg" xmlns:xlink="http://www.w3.org/1999/xlink" x="0px" y="0px"
	 viewBox="0 0 12.6 12.6" style="enable-background:new 0 0 12.6 12.6;" xml:space="preserve">
<style type="text/css">
	.st0{fill:#222222;}
</style>
<polygon class="st0" points="7.6,6.3 12.4,1.4 12.6,1.3 12.4,1.1 11.4,0.1 11.3,0 11.1,0.1 6.3,5 1.4,0.1 1.3,0 1.1,0.1 0.1,1.1 
	0,1.3 0.1,1.4 5,6.3 0.1,11.1 0,11.3 0.1,11.4 0.3,11.3 0.3,11.3 0.1,11.4 1.1,12.4 1.3,12.6 1.4,12.4 6.3,7.6 11.1,12.4 11.3,12.6 
	11.4,12.4 12.4,11.4 12.6,11.3 12.4,11.1 "/>
</svg>
