<?xml version="1.0" encoding="utf-8"?>
<!-- Generator: Adobe Illustrator 25.4.1, SVG Export Plug-In . SVG Version: 6.00 Build 0)  -->
<svg version="1.1" id="Layer_1" xmlns="http://www.w3.org/2000/svg" xmlns:xlink="http://www.w3.org/1999/xlink" x="0px" y="0px"
	 viewBox="0 0 14 14" style="enable-background:new 0 0 14 14;" xml:space="preserve">
<style type="text/css">
	.st0{fill:#FFFFFF;}
</style>
<g>
	<path class="st0" d="M7,14c-3.9,0-7-3.1-7-7c0-3.9,3.1-7,7-7c3.9,0,7,3.1,7,7C14,10.9,10.9,14,7,14z M7,1.5C4,1.5,1.5,4,1.5,7
		c0,3,2.5,5.5,5.5,5.5c3,0,5.5-2.5,5.5-5.5C12.5,4,10,1.5,7,1.5z"/>
</g>
<g>
	<path class="st0" d="M10,7L5.5,9.6V4.4L10,7z"/>
</g>
</svg>
