<?xml version="1.0" encoding="utf-8"?>
<svg width="436" height="107" viewBox="0 0 436 107" fill="none" xmlns="http://www.w3.org/2000/svg">
<path fill-rule="evenodd" clip-rule="evenodd" d="M156.856 51.4602C162.919 51.4602 166.259 48.6576 166.259 43.5683C166.259 38.4791 162.919 35.6765 156.856 35.6765H150.519V51.4602H156.856ZM144.103 74.5021V29.7518H157.044C166.616 29.7518 172.801 35.1749 172.801 43.5683C172.801 51.96 166.616 57.3831 157.044 57.3831H150.519V74.5021H144.103ZM192.687 48.0191C186.898 48.0191 182.533 52.5854 182.533 58.6386C182.533 64.6954 186.898 69.2599 192.687 69.2599C198.476 69.2599 202.841 64.6954 202.841 58.6386C202.841 52.5854 198.476 48.0191 192.687 48.0191ZM192.687 74.9971C183.312 74.9971 176.242 67.9657 176.242 58.6386C176.242 49.3151 183.312 42.2801 192.687 42.2801C196.627 42.2801 200.35 43.5886 203.262 45.977V42.7763H209.187V74.5027H203.262V71.302C200.35 73.6904 196.627 74.9971 192.687 74.9971ZM216.196 58.6388C216.196 67.9659 223.266 74.9973 232.642 74.9973C238.651 74.9973 242.599 72.2751 244.852 69.9902L245.092 69.7492L241.163 65.5043L240.899 65.7667C239.29 67.3607 236.552 69.2601 232.642 69.2601C226.852 69.2601 222.488 64.6956 222.488 58.6388C222.488 52.5838 226.852 48.0194 232.642 48.0194C236.552 48.0194 239.29 49.9169 240.899 51.511L241.163 51.7734L245.092 47.5285L244.852 47.2893C242.599 45.0026 238.651 42.2803 232.642 42.2803C223.266 42.2803 216.196 49.3135 216.196 58.6388ZM273.499 74.5024V55.5376C273.499 51.0392 270.474 48.0189 265.975 48.0189C261.825 48.0189 258.925 50.2163 257.81 54.2078L257.824 74.5024H251.719V29.7521H257.824V45.7179C260.555 42.8992 264.357 42.2798 267.164 42.2798C274.603 42.2798 279.603 47.4833 279.603 55.227V74.5024H273.499ZM368.206 55.5376V74.5024H374.311V55.227C374.311 47.3637 369.599 42.2798 362.309 42.2798C359.803 42.2798 355.188 42.9189 351.883 47.0942C349.833 44.0292 346.407 42.2798 342.407 42.2798C340.389 42.2798 336.736 42.7314 333.944 45.6001V42.7778H327.84V74.5024H333.944L333.924 53.6062C335.14 50.0556 337.799 48.0188 341.219 48.0188C345.371 48.0188 348.054 50.9696 348.054 55.5376V74.5024H354.158V55.227C354.158 54.8396 354.156 54.388 354.079 54.0881C355.269 50.1181 357.811 48.0188 361.432 48.0188C365.548 48.0188 368.206 50.9696 368.206 55.5376ZM302.553 48.0191C296.764 48.0191 292.399 52.5854 292.399 58.6386C292.399 64.6954 296.764 69.2599 302.553 69.2599C308.342 69.2599 312.707 64.6954 312.707 58.6386C312.707 52.5854 308.342 48.0191 302.553 48.0191ZM302.553 74.9971C293.179 74.9971 286.109 67.9657 286.109 58.6386C286.109 49.3151 293.179 42.2801 302.553 42.2801C306.493 42.2801 310.216 43.5886 313.128 45.977V42.7763H319.053V74.5027H313.128V71.302C310.216 73.6904 306.493 74.9971 302.553 74.9971ZM387.347 58.6386C387.347 52.5854 391.711 48.0191 397.5 48.0191C403.29 48.0191 407.654 52.5854 407.654 58.6386C407.654 64.6954 403.29 69.2599 397.5 69.2599C391.711 69.2599 387.347 64.6954 387.347 58.6386ZM381.055 58.6386C381.055 67.9657 388.125 74.9971 397.5 74.9971C401.44 74.9971 405.163 73.6904 408.076 71.302V74.5027H414V42.7763H408.076V45.977C405.163 43.5886 401.44 42.2801 397.5 42.2801C388.125 42.2801 381.055 49.3151 381.055 58.6386Z" fill="white"/>
<path fill-rule="evenodd" clip-rule="evenodd" d="M64.6682 91.9756C61.0748 96.1586 55.9096 98.8891 50.1128 99.513C42.6808 100.313 35.5064 97.4671 30.9074 91.9007C37.5872 90.8798 43.5598 87.3025 47.6927 81.8799C51.8196 87.2762 57.9904 90.8676 64.6682 91.9756ZM67.5114 87.7299C60.6006 87.2539 54.0782 83.547 50.3377 77.6686L50.3274 77.6747C53.7185 71.0023 54.16 63.4771 51.654 56.7277C57.694 57.8236 63.0514 61.4616 66.4301 66.9186C70.4282 73.3804 70.8308 81.1588 67.5114 87.7299ZM67.9059 20.3454C70.9576 26.4648 71.0169 33.8543 67.865 39.9839C60.0773 40.312 53.0439 43.7961 48.3141 49.5266C46.2374 43.8082 46.7137 37.3992 49.7674 31.7679C53.3955 25.0793 59.9895 20.8133 67.4071 20.3616C67.5748 20.3495 67.7383 20.3515 67.9059 20.3454ZM31.5512 16.1443C35.212 11.9107 40.4835 9.18217 46.3723 8.63525C53.5917 7.96274 60.5066 10.7216 65.0381 16.0227C58.2745 16.9869 52.2284 20.5682 48.0504 26.0151C43.9972 20.8093 38.0266 17.3049 31.5512 16.1443ZM28.7039 20.3697C35.4103 20.9389 41.7079 24.5445 45.4055 30.2082C41.9552 36.9556 41.5219 44.5719 44.0912 51.374C38.1125 50.1667 32.8533 46.4638 29.5767 40.9886C25.7156 34.537 25.3988 26.8517 28.7039 20.3697ZM8.68293 54.0174C8.65022 53.9688 8.62365 53.9182 8.59095 53.8695C12.5032 48.1289 19.0889 44.3815 26.1592 44.1688C30.2451 50.4705 36.5856 54.6778 43.7478 55.9539C39.762 60.6007 33.8937 63.3859 27.4224 63.548C19.7635 63.7445 12.7566 60.1794 8.68293 54.0174ZM52.0853 52.168C56.0466 47.5212 61.8904 44.7218 68.3453 44.5294C76.0022 44.2903 83.0274 47.8271 87.1318 53.9668C87.14 53.9809 87.1481 53.9951 87.1563 54.0073C83.3177 59.7033 76.8484 63.4649 69.862 63.7809C65.6922 57.5015 59.2822 53.3571 52.0853 52.168ZM28.1561 87.6104C25.1944 81.4991 25.1821 74.1542 28.3708 68.0672C35.9581 67.6539 42.8055 64.2428 47.4638 58.6662C49.471 64.4008 48.9253 70.7937 45.8184 76.3884C42.1392 83.0122 35.5411 87.2012 28.1561 87.6104ZM7.12948 33.2284C10.1648 26.4263 16.2744 21.6884 23.4713 20.552C23.5122 20.5459 23.551 20.5419 23.5919 20.5358C21.1554 26.7059 21.2535 33.5464 23.8351 39.7671C16.9959 40.5571 10.6942 44.0513 6.33641 49.2592C4.57039 44.1384 4.80545 38.4343 7.12948 33.2284ZM89.4844 49.4577C85.3351 44.3916 79.4177 41.1263 72.8258 40.2188C75.4012 34.0305 75.4462 27.0097 73.1017 20.7789C78.3221 21.8606 83.0642 24.8504 86.4 29.327C90.8089 35.2459 91.9515 42.7529 89.4844 49.4577ZM88.7874 74.7517C85.8052 81.5254 79.7754 86.2715 72.6398 87.4788C75.0517 81.254 74.8923 74.375 72.2289 68.1522C78.9803 67.2751 85.1736 63.7627 89.4517 58.5893C91.2913 63.7323 91.1053 69.4892 88.7874 74.7517ZM6.2383 58.4313C10.4592 63.6837 16.5646 67.0503 23.3691 67.9031C20.7814 74.0691 20.718 81.0595 23.0216 87.2742C17.558 86.2593 12.589 83.1561 9.16327 78.4607C4.84429 72.5357 3.7671 65.0773 6.2383 58.4313ZM0 29.9266V77.6261C0 79.7955 1.16917 81.8029 3.06601 82.8867L42.9179 105.689C44.4285 106.552 46.1209 106.986 47.8133 106.986C49.5078 106.986 51.2002 106.552 52.7108 105.689L92.5627 82.8867C94.4595 81.8029 95.6287 79.7955 95.6287 77.6261V29.9266C95.6287 27.7552 94.4595 25.7498 92.5627 24.664L50.8814 0.814302C48.9845 -0.271434 46.6462 -0.271434 44.7473 0.814302L3.06601 24.664C1.16917 25.7498 0 27.7552 0 29.9266Z" fill="white"/>
<path d="M424.917 35.5518V31.8618H426.787C426.937 31.8618 427.101 31.9051 427.277 31.9918C427.454 32.0751 427.604 32.2051 427.727 32.3818C427.854 32.5551 427.917 32.7751 427.917 33.0418C427.917 33.3118 427.852 33.5418 427.722 33.7318C427.592 33.9185 427.434 34.0601 427.247 34.1568C427.064 34.2535 426.891 34.3018 426.727 34.3018H425.377V33.7018H426.477C426.587 33.7018 426.706 33.6468 426.832 33.5368C426.962 33.4268 427.027 33.2618 427.027 33.0418C427.027 32.8151 426.962 32.6618 426.832 32.5818C426.706 32.5018 426.594 32.4618 426.497 32.4618H425.727V35.5518H424.917ZM427.147 33.8118L428.067 35.5518H427.177L426.277 33.8118H427.147ZM426.317 37.7518C425.764 37.7518 425.246 37.6485 424.762 37.4418C424.279 37.2351 423.854 36.9485 423.487 36.5818C423.121 36.2151 422.834 35.7901 422.627 35.3068C422.421 34.8235 422.317 34.3051 422.317 33.7518C422.317 33.1985 422.421 32.6801 422.627 32.1968C422.834 31.7135 423.121 31.2885 423.487 30.9218C423.854 30.5551 424.279 30.2685 424.762 30.0618C425.246 29.8551 425.764 29.7518 426.317 29.7518C426.871 29.7518 427.389 29.8551 427.872 30.0618C428.356 30.2685 428.781 30.5551 429.147 30.9218C429.514 31.2885 429.801 31.7135 430.007 32.1968C430.214 32.6801 430.317 33.1985 430.317 33.7518C430.317 34.3051 430.214 34.8235 430.007 35.3068C429.801 35.7901 429.514 36.2151 429.147 36.5818C428.781 36.9485 428.356 37.2351 427.872 37.4418C427.389 37.6485 426.871 37.7518 426.317 37.7518ZM426.317 36.7918C426.877 36.7918 427.387 36.6551 427.847 36.3818C428.307 36.1085 428.674 35.7418 428.947 35.2818C429.221 34.8218 429.357 34.3118 429.357 33.7518C429.357 33.1918 429.221 32.6818 428.947 32.2218C428.674 31.7618 428.307 31.3951 427.847 31.1218C427.387 30.8485 426.877 30.7118 426.317 30.7118C425.757 30.7118 425.247 30.8485 424.787 31.1218C424.327 31.3951 423.961 31.7618 423.687 32.2218C423.414 32.6818 423.277 33.1918 423.277 33.7518C423.277 34.3118 423.414 34.8218 423.687 35.2818C423.961 35.7418 424.327 36.1085 424.787 36.3818C425.247 36.6551 425.757 36.7918 426.317 36.7918Z" fill="white"/>
</svg>
